<svg xmlns="http://www.w3.org/2000/svg" xmlns:xlink="http://www.w3.org/1999/xlink" width="740" height="769" viewBox="0 0 740 769">
  <defs>
    <clipPath id="clip-path">
      <rect id="Rectangle_10" data-name="Rectangle 10" width="740" height="769" fill="#fff" stroke="#707070" stroke-width="1"/>
    </clipPath>
  </defs>
  <g id="Mask_Group_2" data-name="Mask Group 2" opacity="0.045" clip-path="url(#clip-path)">
    <g id="Group_5" data-name="Group 5" transform="translate(-1147.482 -1135.396)">
      <path id="Path_27" data-name="Path 27" d="M1309.5,1231.955c95.738-12.282,139.757-39.68,186.363-68.684,49.529-30.829,100.745-62.7,208.307-76.5,35.474-4.557,65.44-5.61,91.777-4.418a510.673,510.673,0,0,0-270.261-76.957c-168.932,0-318.768,81.646-412.285,207.6C1165.234,1229.121,1214.686,1244.1,1309.5,1231.955Z" fill="#fff"/>
      <path id="Path_28" data-name="Path 28" d="M1359.057,1404.93c86.128,9.594,130.658-6.935,177.814-24.433,51.056-18.949,103.867-38.557,202.9-27.513s146.229,41.779,191.874,71.509c30.271,19.719,59.429,38.618,105.327,51.277a511.491,511.491,0,0,0-150.579-322.141c-45.087-13.3-93.181-23.123-175.261-12.6-95.738,12.282-139.757,39.68-186.363,68.684-49.529,30.829-100.745,62.7-208.307,76.5a563.2,563.2,0,0,1-71.817,4.9c-64.307,0-107.2-13.342-149.031-26.356q-6.764-2.1-13.5-4.162-6.569,11.268-12.566,22.892c54.167,14.723,88.278,36.84,121.465,58.457C1233.145,1369.4,1272.943,1395.331,1359.057,1404.93Z" fill="#fff"/>
      <path id="Path_29" data-name="Path 29" d="M1309.5,1685.554c95.738-12.281,139.757-39.679,186.363-68.684,49.529-30.829,100.745-62.7,208.307-76.5s165.167,4.114,220.871,21.449c33.4,10.391,65.681,20.381,109.436,23.107a516.882,516.882,0,0,0,4.055-52.313c-63.263-14.517-100.547-38.7-136.756-62.281-42.14-27.452-81.938-53.381-168.067-62.979-86.121-9.613-130.658,6.931-177.8,24.433-51.071,18.952-103.883,38.561-202.911,27.512-99.028-11.033-146.214-41.778-191.851-71.508-32.214-20.986-63.139-41.058-114.368-53.648a514.193,514.193,0,0,0-18.594,310.737c31.486,5.068,57.823,13.2,83.685,21.246C1164.267,1682.425,1213.75,1697.82,1309.5,1685.554Z" fill="#fff"/>
      <path id="Path_30" data-name="Path 30" d="M1544.366,1876.863c-51.056,18.96-103.806,38.546-202.9,27.517-99.028-11.037-146.222-41.782-191.851-71.512-16.592-10.809-32.863-21.363-51.7-30.8,91.918,138.427,249.154,229.725,427.772,229.725a511.208,511.208,0,0,0,342.1-130.747c-35.249-21.758-74.739-40.717-145.606-48.612C1636.037,1842.829,1591.507,1859.361,1544.366,1876.863Z" fill="#fff"/>
      <path id="Path_31" data-name="Path 31" d="M1908.788,1614.058c-52.415-16.3-101.959-31.7-197.66-19.426-95.738,12.281-139.757,39.679-186.363,68.684-49.529,30.829-100.745,62.708-208.307,76.5a563.821,563.821,0,0,1-71.81,4.908c-64.322,0-107.2-13.35-149.031-26.364-15.891-4.943-31.531-9.791-48.254-13.823q4.7,12.079,9.983,23.852c54.56,14.723,88.806,36.934,122.125,58.644,42.141,27.447,81.939,53.376,168.052,62.971,86.083,9.6,130.644-6.931,177.8-24.425,51.079-18.96,103.9-38.546,202.911-27.517,89.99,10.029,137.159,36.332,179.271,63.358a511.818,511.818,0,0,0,117.009-222.3C1977.856,1635.494,1942.937,1624.683,1908.788,1614.058Z" fill="#fff"/>
    </g>
  </g>
</svg>
