<svg id="Group_110" data-name="Group 110" xmlns="http://www.w3.org/2000/svg" width="46.103" height="46.103" viewBox="0 0 46.103 46.103">
  <circle id="Ellipse_4" data-name="Ellipse 4" cx="23.052" cy="23.052" r="23.052" transform="translate(0 0)" fill="#f0f0f0"/>
  <g id="Group_109" data-name="Group 109" transform="translate(2.287 0)">
    <path id="Path_236" data-name="Path 236" d="M1142.962,1025.549a23.053,23.053,0,0,0-20.764,13.029h41.528A23.053,23.053,0,0,0,1142.962,1025.549Z" transform="translate(-1122.198 -1025.549)" fill="#338af3"/>
    <path id="Path_237" data-name="Path 237" d="M1142.962,1405.882a23.053,23.053,0,0,0,20.764-13.029H1122.2A23.053,23.053,0,0,0,1142.962,1405.882Z" transform="translate(-1122.198 -1359.779)" fill="#338af3"/>
  </g>
  <path id="Path_238" data-name="Path 238" d="M1290.061,1215.316l-2.815,1.324,1.5,2.726-3.057-.585-.387,3.088-2.129-2.271-2.129,2.271-.387-3.088-3.057.585,1.5-2.726-2.815-1.324,2.815-1.324-1.5-2.726,3.057.585.387-3.088,2.129,2.271,2.129-2.271.387,3.088,3.057-.585-1.5,2.726Z" transform="translate(-1260.12 -1192.265)" fill="#ffda44"/>
</svg>
