<?xml version="1.0" encoding="utf-8"?>
<!-- Generator: Adobe Illustrator 24.2.3, SVG Export Plug-In . SVG Version: 6.00 Build 0)  -->
<svg version="1.1" id="Group_34" xmlns="http://www.w3.org/2000/svg" xmlns:xlink="http://www.w3.org/1999/xlink" x="0px" y="0px"
	 viewBox="0 0 103.7 158.6" style="enable-background:new 0 0 103.7 158.6;" xml:space="preserve">
<style type="text/css">
	.st0{enable-background:new    ;}
	.st1{fill:#FFFFFF;}
	.st2{fill:none;stroke:#FFFFFF;stroke-miterlimit:10;}
</style>
<g class="st0">
	<path class="st1" d="M34.4,125.9l-1.8-5.9H22.1l-2,5.9h-6.3l10.2-28.6h6.9l10.1,28.6H34.4z M24.7,94.7l-1.3-2.4l8.9-5.2l2,3.5
		L24.7,94.7z M27.3,103.8L27.3,103.8l-3.7,11.4h7.3L27.3,103.8z"/>
	<path class="st1" d="M54,111.2c-0.1-1-0.5-1.8-1.1-2.2c-0.6-0.4-1.5-0.6-2.8-0.6c-1.1,0-1.9,0.1-2.5,0.4c-0.6,0.3-0.9,0.7-0.9,1.4
		c0,0.6,0.3,1.1,0.9,1.4c0.6,0.3,1.4,0.7,2.6,1c1.2,0.3,2.4,0.7,3.4,0.9s2,0.6,2.9,0.9c1.1,0.5,2,1.1,2.6,1.9
		c0.6,0.8,0.9,1.9,0.9,3.2c0,2.2-0.8,3.9-2.3,5.2c-1.6,1.2-3.9,1.8-6.9,1.8c-3.3,0-5.8-0.7-7.5-2.1c-1.7-1.4-2.6-3.1-2.7-5.3h5.8
		c0,1,0.4,1.8,1.2,2.3s1.8,0.8,3.2,0.8c1,0,1.9-0.2,2.6-0.5c0.7-0.3,1.1-0.9,1.1-1.7c0-0.7-0.3-1.3-1-1.6c-0.7-0.3-1.5-0.6-2.4-0.8
		c-1.8-0.4-3.2-0.8-4.3-1.2c-1.1-0.3-2-0.8-2.8-1.2c-1-0.6-1.7-1.3-2.1-2.2c-0.4-0.8-0.6-1.7-0.6-2.6c0-0.9,0.2-1.7,0.5-2.5
		c0.3-0.8,0.8-1.4,1.5-2c0.7-0.6,1.6-1,2.8-1.3c1.1-0.3,2.5-0.5,4.1-0.5c3.1,0,5.3,0.6,6.8,1.8c1.4,1.2,2.2,2.9,2.4,5.2H54z"/>
	<path class="st1" d="M61.7,102.2V97h5.6v5.2H61.7z M61.7,125.9v-21.2h5.6v21.2H61.7z"/>
	<path class="st1" d="M83.1,125.9c-0.2-0.5-0.3-1.2-0.3-1.9c-0.7,0.7-1.5,1.3-2.6,1.8c-1.1,0.4-2.4,0.7-3.8,0.7
		c-2.4,0-4.2-0.5-5.4-1.6c-1.1-1.1-1.7-2.5-1.7-4.2c0-1.5,0.2-2.7,0.7-3.6c0.5-0.9,1.2-1.6,2-2.1c0.9-0.5,1.9-0.9,3.1-1.1
		c1.2-0.2,2.5-0.5,3.9-0.7c1.4-0.2,2.4-0.5,2.8-0.8c0.5-0.3,0.7-0.9,0.7-1.6c0-0.7-0.3-1.2-1-1.6c-0.6-0.4-1.5-0.6-2.6-0.6
		c-1.3,0-2.2,0.3-2.8,0.9c-0.6,0.6-0.9,1.3-1.1,2.3H70c0-1.1,0.2-2.1,0.5-3c0.3-0.9,0.9-1.7,1.6-2.4c0.7-0.7,1.7-1.2,2.9-1.5
		c1.2-0.4,2.6-0.5,4.3-0.5c1.7,0,3.1,0.2,4.2,0.6c1.2,0.4,2.1,0.9,2.8,1.6c0.7,0.7,1.2,1.6,1.5,2.6c0.3,1,0.5,2.2,0.5,3.5v13.4H83.1
		z M82.7,115.6c-0.3,0.3-0.7,0.5-1.2,0.7c-0.5,0.2-1.3,0.4-2.4,0.6c-1.6,0.3-2.7,0.7-3.3,1.2c-0.6,0.5-0.9,1.2-0.9,2.1
		c0,1.6,0.9,2.4,2.7,2.4c0.7,0,1.4-0.1,2-0.4c0.6-0.2,1.1-0.6,1.6-1c0.4-0.4,0.8-0.9,1.1-1.5c0.3-0.6,0.4-1.2,0.4-1.8L82.7,115.6z"
		/>
</g>
<g class="st0">
	<path class="st1" d="M0.9,143.8h0.8v4.9h0c0.1-0.2,0.3-0.4,0.5-0.5c0.2-0.2,0.4-0.3,0.6-0.4c0.2-0.1,0.4-0.2,0.7-0.2
		c0.2,0,0.5-0.1,0.7-0.1c0.5,0,0.9,0.1,1.3,0.2c0.4,0.2,0.7,0.4,1,0.7c0.3,0.3,0.5,0.6,0.7,1c0.2,0.4,0.2,0.8,0.2,1.3
		s-0.1,0.9-0.2,1.3c-0.2,0.4-0.4,0.7-0.7,1c-0.3,0.3-0.6,0.5-1,0.7c-0.4,0.2-0.8,0.2-1.3,0.2c-0.2,0-0.5,0-0.7-0.1
		c-0.2,0-0.5-0.1-0.7-0.2c-0.2-0.1-0.4-0.2-0.6-0.4c-0.2-0.2-0.3-0.3-0.5-0.5h0v1.1H0.9V143.8z M1.6,150.6c0,0.3,0.1,0.7,0.2,1
		c0.1,0.3,0.3,0.6,0.5,0.8c0.2,0.2,0.5,0.4,0.8,0.5c0.3,0.1,0.6,0.2,1,0.2c0.4,0,0.7-0.1,1-0.2c0.3-0.1,0.5-0.3,0.8-0.5
		s0.4-0.5,0.5-0.8c0.1-0.3,0.2-0.6,0.2-1s-0.1-0.7-0.2-1c-0.1-0.3-0.3-0.6-0.5-0.8c-0.2-0.2-0.5-0.4-0.8-0.5c-0.3-0.1-0.6-0.2-1-0.2
		c-0.4,0-0.7,0.1-1,0.2c-0.3,0.1-0.6,0.3-0.8,0.5c-0.2,0.2-0.4,0.5-0.5,0.8C1.6,150,1.6,150.3,1.6,150.6z"/>
	<path class="st1" d="M10.7,155.5c-0.1,0.4-0.4,0.7-0.6,0.9c-0.3,0.2-0.6,0.3-1,0.3c-0.1,0-0.3,0-0.4,0c-0.1,0-0.3-0.1-0.4-0.1
		l0.1-0.7c0.1,0,0.2,0.1,0.3,0.1c0.1,0,0.2,0,0.4,0c0.1,0,0.3,0,0.4-0.1s0.2-0.1,0.3-0.2c0.1-0.1,0.1-0.2,0.2-0.3
		c0.1-0.1,0.1-0.2,0.1-0.4l0.5-1.4l-2.4-6H9l2,5.1l1.9-5.1h0.8L10.7,155.5z"/>
</g>
<path id="Path_123" class="st1" d="M29,150.6c-0.1,0.7-0.3,1.3-0.6,1.9c-0.3,0.5-0.7,1-1.1,1.4c-0.4,0.4-1,0.7-1.5,0.9
	c-0.6,0.2-1.3,0.3-1.9,0.3c-0.8,0-1.5-0.1-2.2-0.4c-0.7-0.3-1.3-0.7-1.8-1.2c-0.5-0.6-0.9-1.2-1.2-2c-0.3-0.9-0.4-1.8-0.4-2.7
	c0-0.9,0.1-1.9,0.4-2.8c0.2-0.8,0.6-1.5,1.1-2.1c0.5-0.6,1.1-1,1.8-1.3c0.7-0.3,1.5-0.5,2.3-0.5c0.7,0,1.4,0.1,2,0.3
	c0.6,0.2,1.1,0.5,1.6,0.9c0.4,0.4,0.8,0.9,1.1,1.4c0.3,0.5,0.4,1.1,0.5,1.7h-2.5c-0.1-0.6-0.5-1.2-1-1.6c-1.2-0.9-3-0.7-3.9,0.5
	c0,0,0,0,0,0c-1,2-1,4.3,0,6.3c0.5,0.7,1.3,1.2,2.2,1.1c0.7,0,1.3-0.2,1.8-0.6c0.5-0.5,0.8-1.1,0.9-1.8L29,150.6z"/>
<path id="Path_124" class="st1" d="M33.9,155c-0.7,0-1.3-0.1-1.9-0.3c-0.5-0.2-1-0.5-1.4-1c-0.4-0.4-0.7-0.9-0.9-1.5
	c-0.2-0.6-0.3-1.3-0.3-1.9c0-0.7,0.1-1.3,0.3-1.9c0.2-0.6,0.5-1.1,0.9-1.5c0.4-0.4,0.9-0.7,1.4-1c0.6-0.2,1.3-0.3,1.9-0.3
	c0.6,0,1.3,0.1,1.9,0.3c1.1,0.4,2,1.3,2.3,2.4c0.2,0.6,0.3,1.3,0.3,1.9c0,0.7-0.1,1.3-0.3,1.9c-0.2,0.6-0.5,1.1-0.9,1.5
	c-0.4,0.4-0.9,0.7-1.4,1C35.2,154.9,34.6,155,33.9,155z M33.9,153c1.4,0,2.2-0.9,2.2-2.7c0-1.8-0.7-2.7-2.2-2.7s-2.2,0.9-2.2,2.7
	C31.7,152.1,32.5,153,33.9,153L33.9,153z"/>
<path id="Path_125" class="st1" d="M45,154.7v-5.4c0.1-0.5-0.1-1-0.3-1.4c-0.3-0.3-0.8-0.4-1.2-0.4c-1.2,0-1.8,0.7-1.8,2.1v5.1h-2.4
	v-8.9h2.3v1.3c0.3-0.5,0.6-0.9,1.1-1.2c0.6-0.3,1.2-0.4,1.8-0.4c0.4,0,0.8,0.1,1.2,0.2c0.4,0.1,0.7,0.3,0.9,0.6
	c0.3,0.3,0.5,0.6,0.6,0.9c0.2,0.4,0.2,0.8,0.2,1.3v6.2L45,154.7z"/>
<path id="Path_126" class="st1" d="M53.5,148.9h2.2v2.5c0,0.5-0.1,0.9-0.2,1.4c-0.1,0.4-0.4,0.8-0.7,1.1c-0.3,0.3-0.7,0.6-1.1,0.8
	c-0.5,0.2-1.1,0.3-1.6,0.3c-0.6,0-1.1-0.1-1.7-0.3c-0.4-0.2-0.8-0.4-1.1-0.8c-0.3-0.3-0.5-0.7-0.6-1.1c-0.1-0.4-0.2-0.9-0.2-1.4v-8
	h2.3v2.4h4.9v1.7h-4.9v3.7c0,0.5,0.1,0.9,0.3,1.3c0.2,0.3,0.6,0.5,1,0.5c0.4,0,0.8-0.1,1-0.5c0.2-0.4,0.4-0.8,0.3-1.3L53.5,148.9z"
	/>
<path id="Path_127" class="st1" d="M56.7,144.7v-2.2h2.4v2.2H56.7z M56.7,154.7v-8.9h2.4v8.9H56.7z"/>
<path id="Path_128" class="st1" d="M65.9,154.7v-5.4c0.1-0.5-0.1-1-0.3-1.4c-0.3-0.3-0.8-0.4-1.2-0.4c-1.2,0-1.8,0.7-1.8,2.1v5.1
	h-2.4v-8.9h2.3v1.3c0.3-0.5,0.6-0.9,1.1-1.2c0.6-0.3,1.2-0.4,1.8-0.4c0.4,0,0.8,0.1,1.2,0.2c0.4,0.1,0.7,0.3,0.9,0.6
	c0.3,0.3,0.5,0.6,0.6,0.9c0.2,0.4,0.2,0.8,0.2,1.3v6.2L65.9,154.7z"/>
<path id="Path_129" class="st1" d="M71.5,150.9c0,0.6,0.2,1.2,0.6,1.6c0.4,0.4,0.9,0.6,1.4,0.6c0.4,0,0.7-0.1,1-0.3
	c0.3-0.2,0.5-0.4,0.6-0.7h2.4c-0.2,0.9-0.7,1.6-1.5,2.1c-0.7,0.5-1.6,0.8-2.5,0.7c-3,0-4.5-1.6-4.5-4.9c0-0.6,0.1-1.3,0.3-1.9
	c0.2-0.5,0.5-1,0.8-1.4c0.4-0.4,0.8-0.7,1.4-0.9c0.6-0.2,1.2-0.3,1.8-0.3c1.2-0.1,2.4,0.4,3.1,1.3c0.8,1.2,1.2,2.6,1.1,4L71.5,150.9
	z M75.2,149.4c0-0.3-0.1-0.6-0.2-0.9c-0.1-0.2-0.2-0.4-0.4-0.6c-0.2-0.2-0.4-0.3-0.6-0.4c-0.2-0.1-0.4-0.1-0.7-0.1
	c-0.5,0-0.9,0.2-1.2,0.5c-0.4,0.4-0.6,0.9-0.6,1.4L75.2,149.4z"/>
<path id="Path_130" class="st1" d="M84.2,154.7v-5.4c0.1-0.5-0.1-1-0.3-1.4c-0.3-0.3-0.8-0.4-1.2-0.4c-1.2,0-1.8,0.7-1.8,2.1v5.1
	h-2.4v-8.9h2.3v1.3c0.3-0.5,0.6-0.9,1.1-1.2c0.6-0.3,1.2-0.4,1.8-0.4c0.4,0,0.8,0.1,1.2,0.2c0.4,0.1,0.7,0.3,0.9,0.6
	c0.3,0.3,0.5,0.6,0.6,0.9c0.2,0.4,0.2,0.8,0.2,1.3v6.2L84.2,154.7z"/>
<path id="Path_131" class="st1" d="M92.7,148.9h2.2v2.5c0,0.5-0.1,0.9-0.2,1.4c-0.1,0.4-0.4,0.8-0.7,1.1c-0.3,0.3-0.7,0.6-1.1,0.8
	c-0.5,0.2-1.1,0.3-1.6,0.3c-0.6,0-1.1-0.1-1.7-0.3c-0.4-0.2-0.8-0.4-1.1-0.8c-0.3-0.3-0.5-0.7-0.6-1.1c-0.1-0.4-0.2-0.9-0.2-1.4v-8
	h2.3v2.4h4.9v1.7h-4.9v3.7c0,0.5,0.1,0.9,0.3,1.3c0.2,0.3,0.6,0.5,1,0.5c0.4,0,0.8-0.1,1-0.5c0.2-0.4,0.4-0.8,0.3-1.3L92.7,148.9z"
	/>
<path id="Path_132" class="st1" d="M101.2,148.5c0-0.4-0.2-0.7-0.5-0.9c-0.4-0.2-0.8-0.3-1.2-0.3c-0.4,0-0.7,0-1,0.2
	c-0.2,0.1-0.4,0.3-0.4,0.6c0,0.3,0.1,0.5,0.4,0.6c0.3,0.2,0.7,0.3,1.1,0.4c0.5,0.1,1,0.3,1.5,0.4c0.4,0.1,0.8,0.2,1.2,0.4
	c0.4,0.2,0.8,0.4,1.1,0.8c0.3,0.4,0.4,0.9,0.4,1.4c0,0.8-0.3,1.7-1,2.2c-0.9,0.6-1.9,0.9-2.9,0.8c-1.1,0.1-2.2-0.2-3.2-0.9
	c-0.7-0.5-1.1-1.4-1.1-2.2H98c0,0.4,0.2,0.8,0.5,1c0.4,0.3,0.9,0.4,1.4,0.3c0.4,0,0.8-0.1,1.1-0.2c0.3-0.1,0.5-0.4,0.5-0.7
	c0-0.3-0.2-0.6-0.4-0.7c-0.3-0.1-0.7-0.3-1-0.3c-0.8-0.2-1.4-0.3-1.8-0.5c-0.4-0.1-0.8-0.3-1.2-0.5c-0.4-0.2-0.7-0.5-0.9-0.9
	c-0.2-0.3-0.2-0.7-0.2-1.1c0-0.4,0.1-0.7,0.2-1.1c0.1-0.3,0.4-0.6,0.7-0.8c0.4-0.3,0.7-0.4,1.2-0.6c0.6-0.1,1.2-0.2,1.7-0.2
	c1-0.1,2,0.2,2.9,0.7c0.6,0.6,1,1.4,1,2.2L101.2,148.5z"/>
<g id="Group_33" transform="translate(14.001)">
	<path id="Path_133" class="st1" d="M22.8,17.4c5.1-0.5,10-2.3,14.3-5.3c4.7-3.3,10.2-5.3,16-5.9c2.3-0.3,4.7-0.4,7-0.3
		C42.6-4.9,19.9-0.5,7.7,15.9C12.5,17.6,17.7,18.1,22.8,17.4z"/>
	<path id="Path_134" class="st1" d="M26.5,30.6c4.6,0.6,9.3,0,13.6-1.9c10-4,21.4-2.7,30.2,3.4c2.4,1.8,5.2,3.1,8.1,3.9
		c-0.8-9.3-4.9-18.1-11.5-24.7c-4.3-1.4-8.9-1.7-13.4-1c-5.1,0.5-10,2.3-14.3,5.3c-4.7,3.3-10.2,5.3-16,5.9
		c-1.8,0.2-3.7,0.4-5.5,0.4c-3.9,0-7.8-0.7-11.4-2c-0.3-0.1-0.7-0.2-1-0.3c-0.3,0.6-0.7,1.2-1,1.8c3.3,0.9,6.5,2.5,9.3,4.5
		C17.4,28.5,21.9,30.2,26.5,30.6z"/>
	<path id="Path_135" class="st1" d="M22.8,52.1c5.1-0.5,10-2.3,14.3-5.3c9.7-6.3,21.8-7.9,32.9-4.2c2.7,0.9,5.5,1.5,8.4,1.8
		c0.2-1.3,0.3-2.7,0.3-4c-3.8-0.9-7.3-2.5-10.5-4.8c-7.8-5.4-17.7-6.5-26.5-3c-10,4-21.4,2.7-30.2-3.4c-2.6-1.9-5.6-3.3-8.8-4.1
		C-0.3,32.8-0.8,41.1,1.2,49c2.2,0.4,4.3,0.9,6.4,1.6C12.5,52.4,17.7,52.9,22.8,52.1z"/>
	<path id="Path_136" class="st2" d="M40.7,66.8c-10,4-21.4,2.7-30.2-3.4c-1.3-0.9-2.6-1.7-4-2.4c12,18.1,36.4,23.1,54.5,11.1
		c1.6-1.1,3.1-2.2,4.5-3.5c-3.4-2.1-7.2-3.4-11.2-3.7C49.7,64.3,45,64.9,40.7,66.8z"/>
	<path id="Path_137" class="st1" d="M68.7,46.6c-9.9-3.3-20.7-1.9-29.4,3.8c-4.7,3.3-10.2,5.3-16,5.9c-1.8,0.2-3.7,0.4-5.5,0.4
		c-3.9,0-7.8-0.7-11.4-2c-1.2-0.4-2.4-0.8-3.7-1.1c0.2,0.6,0.5,1.2,0.8,1.8c3.4,0.9,6.5,2.5,9.4,4.5c7.8,5.4,17.7,6.5,26.5,3
		c4.9-2.1,10.3-2.8,15.5-2.1c4.9,0.4,9.6,2.1,13.7,4.9c4.4-4.8,7.4-10.7,9-17C74.5,48.3,71.5,47.6,68.7,46.6z"/>
</g>
</svg>
