<?xml version="1.0" encoding="utf-8"?>
<!-- Generator: Adobe Illustrator 24.2.3, SVG Export Plug-In . SVG Version: 6.00 Build 0)  -->
<svg version="1.1" id="Layer_1" xmlns="http://www.w3.org/2000/svg" xmlns:xlink="http://www.w3.org/1999/xlink" x="0px" y="0px"
	 viewBox="0 0 124 158.6" style="enable-background:new 0 0 124 158.6;" xml:space="preserve">
<style type="text/css">
	.st0{enable-background:new    ;}
	.st1{fill:#FFFFFF;}
	.st2{fill:#E1E1E1;}
	.st3{fill:none;stroke:#FFFFFF;stroke-miterlimit:10;}
</style>
<g id="Group_25" transform="translate(1)">
	<g class="st0">
		<path class="st1" d="M0.5,125.9V97.4h21v5H6.3v6.1h14v5h-14v7.4h15.9v5.1H0.5z"/>
		<path class="st1" d="M37.3,125.9v-3c-1.4,2.4-3.6,3.5-6.6,3.5c-1.1,0-2-0.2-2.9-0.6c-0.9-0.4-1.6-0.9-2.3-1.6
			c-0.6-0.7-1.1-1.5-1.5-2.5s-0.5-2-0.5-3.2v-13.9h5.6v13.1c0,2.6,1.2,4,3.6,4c1.4,0,2.5-0.5,3.2-1.4s1.1-2.1,1.1-3.5v-12.2h5.5
			v21.2H37.3z"/>
		<path class="st1" d="M45,125.9v-21.2h5.2v2.5c0.5-0.7,0.9-1.3,1.4-1.7c0.5-0.4,1-0.7,1.5-0.9c0.5-0.2,1.1-0.4,1.6-0.4
			c0.5-0.1,1.1-0.1,1.7-0.1h0.7v5.7c-0.5-0.1-1-0.1-1.5-0.1c-3.4,0-5.1,1.7-5.1,5.1v11H45z"/>
		<path class="st1" d="M68,126.5c-1.7,0-3.3-0.3-4.6-0.8s-2.5-1.3-3.4-2.3c-0.9-1-1.6-2.1-2.1-3.5c-0.5-1.4-0.7-2.9-0.7-4.5
			c0-1.7,0.3-3.2,0.8-4.6c0.5-1.4,1.2-2.6,2.2-3.5c0.9-1,2.1-1.7,3.4-2.3c1.3-0.5,2.8-0.8,4.5-0.8c1.7,0,3.2,0.3,4.5,0.8
			c1.3,0.5,2.4,1.3,3.4,2.2c0.9,1,1.6,2.1,2.1,3.5s0.8,2.9,0.8,4.6c0,1.7-0.3,3.2-0.8,4.6s-1.2,2.5-2.1,3.5c-0.9,1-2.1,1.7-3.4,2.3
			S69.6,126.5,68,126.5z M68,121.8c3.4,0,5.1-2.2,5.1-6.5c0-4.3-1.7-6.4-5.1-6.4c-3.4,0-5.1,2.1-5.1,6.4
			C62.8,119.7,64.5,121.8,68,121.8z"/>
		<path class="st1" d="M80.7,136v-31.2h5.4l0,2.6c1.3-2.1,3.3-3.1,5.9-3.1c1.3,0,2.5,0.3,3.7,0.8c1.1,0.5,2.1,1.3,2.9,2.2
			s1.4,2.2,1.9,3.6c0.5,1.4,0.7,3,0.7,4.8c0,1.6-0.2,3.1-0.6,4.4s-1,2.5-1.7,3.5c-0.7,1-1.7,1.7-2.7,2.3c-1.1,0.5-2.3,0.8-3.7,0.8
			c-2.6,0-4.7-1.1-6.3-3.3V136H80.7z M90.7,121.7c3.2,0,4.8-2.2,4.8-6.5c0-1.9-0.4-3.4-1.3-4.6s-2-1.8-3.4-1.8
			c-1.3,0-2.5,0.6-3.4,1.7c-0.9,1.1-1.4,2.6-1.4,4.4C86,119.4,87.6,121.7,90.7,121.7z"/>
		<path class="st1" d="M116.5,125.9c-0.2-0.5-0.3-1.2-0.3-1.9c-0.7,0.7-1.5,1.3-2.6,1.8c-1.1,0.4-2.4,0.7-3.8,0.7
			c-2.4,0-4.2-0.5-5.4-1.6s-1.7-2.5-1.7-4.2c0-1.5,0.2-2.7,0.7-3.6c0.5-0.9,1.2-1.6,2-2.1c0.9-0.5,1.9-0.9,3.1-1.1
			c1.2-0.2,2.5-0.5,3.9-0.7c1.4-0.2,2.4-0.5,2.8-0.8c0.5-0.3,0.7-0.9,0.7-1.6c0-0.7-0.3-1.2-1-1.6c-0.6-0.4-1.5-0.6-2.6-0.6
			c-1.3,0-2.2,0.3-2.8,0.9c-0.6,0.6-0.9,1.3-1.1,2.3h-5.2c0-1.1,0.2-2.1,0.5-3c0.3-0.9,0.9-1.7,1.6-2.4c0.7-0.7,1.7-1.2,2.9-1.5
			c1.2-0.4,2.6-0.5,4.3-0.5c1.7,0,3.1,0.2,4.2,0.6c1.2,0.4,2.1,0.9,2.8,1.6c0.7,0.7,1.2,1.6,1.5,2.6c0.3,1,0.5,2.2,0.5,3.5v13.4
			H116.5z M116.1,115.6c-0.3,0.3-0.7,0.5-1.2,0.7s-1.3,0.4-2.4,0.6c-1.6,0.3-2.7,0.7-3.3,1.2c-0.6,0.5-0.9,1.2-0.9,2.1
			c0,1.6,0.9,2.4,2.7,2.4c0.7,0,1.4-0.1,2-0.4c0.6-0.2,1.1-0.6,1.6-1c0.4-0.4,0.8-0.9,1.1-1.5c0.3-0.6,0.4-1.2,0.4-1.8L116.1,115.6z
			"/>
	</g>
	<g id="Group_23" transform="translate(12.291 138.628)">
		<g id="Group_21" transform="translate(0 2)">
			<g class="st0">
				<path class="st2" d="M0.9,3.2h0.8V8h0C1.8,7.8,2,7.7,2.1,7.5c0.2-0.2,0.4-0.3,0.6-0.4C2.9,7,3.2,7,3.4,6.9
					c0.2,0,0.5-0.1,0.7-0.1c0.5,0,0.9,0.1,1.3,0.2c0.4,0.2,0.7,0.4,1,0.7C6.6,8,6.9,8.3,7,8.7C7.2,9.1,7.2,9.5,7.2,10
					S7.2,10.9,7,11.3c-0.2,0.4-0.4,0.7-0.7,1c-0.3,0.3-0.6,0.5-1,0.7c-0.4,0.2-0.8,0.2-1.3,0.2c-0.2,0-0.5,0-0.7-0.1
					c-0.2,0-0.5-0.1-0.7-0.2c-0.2-0.1-0.4-0.2-0.6-0.4c-0.2-0.2-0.3-0.3-0.5-0.5h0V13H0.9V3.2z M1.6,10c0,0.3,0.1,0.7,0.2,1
					c0.1,0.3,0.3,0.6,0.5,0.8c0.2,0.2,0.5,0.4,0.8,0.5c0.3,0.1,0.6,0.2,1,0.2c0.4,0,0.7-0.1,1-0.2c0.3-0.1,0.5-0.3,0.8-0.5
					s0.4-0.5,0.5-0.8c0.1-0.3,0.2-0.6,0.2-1S6.4,9.3,6.3,9C6.2,8.7,6,8.5,5.8,8.3C5.6,8,5.4,7.9,5.1,7.7c-0.3-0.1-0.6-0.2-1-0.2
					c-0.4,0-0.7,0.1-1,0.2C2.8,7.9,2.5,8,2.3,8.3C2.1,8.5,1.9,8.7,1.8,9C1.6,9.3,1.6,9.7,1.6,10z"/>
				<path class="st2" d="M10.7,14.9c-0.1,0.4-0.4,0.7-0.6,0.9c-0.3,0.2-0.6,0.3-1,0.3c-0.1,0-0.3,0-0.4,0c-0.1,0-0.3-0.1-0.4-0.1
					l0.1-0.7c0.1,0,0.2,0.1,0.3,0.1c0.1,0,0.2,0,0.4,0c0.1,0,0.3,0,0.4-0.1s0.2-0.1,0.3-0.2c0.1-0.1,0.1-0.2,0.2-0.3
					c0.1-0.1,0.1-0.2,0.1-0.4l0.5-1.4L8.1,7H9l2,5.1L12.9,7h0.8L10.7,14.9z"/>
			</g>
		</g>
		<g id="Group_22" transform="translate(18.172 3.644)">
			<path id="Path_63" class="st2" d="M10.8,8.3c-0.1,0.7-0.3,1.3-0.6,1.9c-0.3,0.5-0.7,1-1.1,1.4c-0.4,0.4-1,0.7-1.5,0.9
				c-0.6,0.2-1.3,0.3-1.9,0.3c-0.8,0-1.5-0.1-2.2-0.4c-0.7-0.3-1.3-0.7-1.8-1.2c-0.5-0.6-0.9-1.2-1.2-2C0.1,8.4,0,7.5,0,6.6
				c0-0.9,0.1-1.9,0.4-2.8C0.6,3.1,1,2.4,1.5,1.8c0.5-0.6,1.1-1,1.8-1.3C4,0.1,4.8,0,5.6,0c0.7,0,1.4,0.1,2,0.3
				c0.6,0.2,1.1,0.5,1.6,0.9c0.4,0.4,0.8,0.9,1.1,1.4c0.3,0.5,0.4,1.1,0.5,1.7H8.3c-0.1-0.6-0.5-1.2-1-1.6C6,1.8,4.3,2.1,3.3,3.3
				c0,0,0,0,0,0c-1,2-1,4.3,0,6.3c0.5,0.7,1.3,1.2,2.2,1.1c0.7,0,1.3-0.2,1.8-0.6C7.8,9.6,8.1,9,8.3,8.3L10.8,8.3z"/>
			<path id="Path_64" class="st2" d="M15.7,12.7c-0.7,0-1.3-0.1-1.9-0.3c-0.5-0.2-1-0.5-1.4-1c-0.4-0.4-0.7-0.9-0.9-1.5
				c-0.2-0.6-0.3-1.3-0.3-1.9c0-0.7,0.1-1.3,0.3-1.9c0.4-1.1,1.3-2,2.4-2.4c0.6-0.2,1.3-0.3,1.9-0.3c0.6,0,1.3,0.1,1.9,0.3
				c1.1,0.4,2,1.3,2.3,2.4c0.2,0.6,0.3,1.3,0.3,1.9c0,0.7-0.1,1.3-0.3,1.9c-0.2,0.6-0.5,1.1-0.9,1.5c-0.4,0.4-0.9,0.7-1.4,1
				C17,12.6,16.4,12.7,15.7,12.7z M15.7,10.7c1.4,0,2.2-0.9,2.2-2.7c0-1.8-0.7-2.7-2.2-2.7S13.6,6.2,13.6,8
				C13.6,9.8,14.3,10.7,15.7,10.7L15.7,10.7z"/>
			<path id="Path_65" class="st2" d="M26.9,12.5V7.1c0.1-0.5-0.1-1-0.3-1.4c-0.3-0.3-0.8-0.4-1.2-0.4c-1.2,0-1.8,0.7-1.8,2.1v5.1
				h-2.4V3.5h2.3v1.3C23.6,4.4,24,4,24.5,3.7c0.6-0.3,1.2-0.4,1.8-0.4c0.4,0,0.8,0.1,1.2,0.2c0.4,0.1,0.7,0.3,0.9,0.6
				C28.7,4.3,28.9,4.6,29,5c0.2,0.4,0.2,0.8,0.2,1.3v6.2L26.9,12.5z"/>
			<path id="Path_66" class="st2" d="M35.4,6.6h2.2v2.5c0,0.5-0.1,0.9-0.2,1.4c-0.1,0.4-0.4,0.8-0.7,1.1c-0.3,0.3-0.7,0.6-1.1,0.8
				c-0.5,0.2-1.1,0.3-1.6,0.3c-0.6,0-1.1-0.1-1.7-0.3c-0.4-0.2-0.8-0.4-1.1-0.8c-0.3-0.3-0.5-0.7-0.6-1.1c-0.1-0.4-0.2-0.9-0.2-1.4
				v-8h2.3v2.4h4.9v1.7h-4.9v3.7c0,0.5,0.1,0.9,0.3,1.3c0.2,0.3,0.6,0.5,1,0.5c0.4,0,0.8-0.1,1-0.5c0.2-0.4,0.4-0.8,0.3-1.3V6.6z"/>
			<path id="Path_67" class="st2" d="M38.6,2.5V0.3h2.4v2.2H38.6z M38.6,12.5V3.5h2.4v8.9H38.6z"/>
			<path id="Path_68" class="st2" d="M47.7,12.5V7.1c0.1-0.5-0.1-1-0.3-1.4c-0.3-0.3-0.8-0.4-1.2-0.4c-1.2,0-1.8,0.7-1.8,2.1v5.1H42
				V3.5h2.3v1.3c0.3-0.5,0.6-0.9,1.1-1.2c0.6-0.3,1.2-0.4,1.8-0.4c0.4,0,0.8,0.1,1.2,0.2c0.4,0.1,0.7,0.3,0.9,0.6
				c0.3,0.3,0.5,0.6,0.6,0.9c0.2,0.4,0.2,0.8,0.2,1.3v6.2L47.7,12.5z"/>
			<path id="Path_69" class="st2" d="M53.3,8.6c0,0.6,0.2,1.2,0.6,1.6c0.4,0.4,0.9,0.6,1.4,0.6c0.4,0,0.7-0.1,1-0.3
				c0.3-0.2,0.5-0.4,0.6-0.7h2.4c-0.2,0.9-0.7,1.6-1.5,2.1c-0.7,0.5-1.6,0.8-2.5,0.7c-3,0-4.5-1.6-4.5-4.9c0-0.6,0.1-1.3,0.3-1.9
				c0.2-0.5,0.5-1,0.8-1.4c0.4-0.4,0.8-0.7,1.4-0.9c0.6-0.2,1.2-0.3,1.8-0.3c1.2-0.1,2.4,0.4,3.1,1.3c0.8,1.2,1.2,2.6,1.1,4
				L53.3,8.6z M57,7.1c0-0.3-0.1-0.6-0.2-0.9c-0.1-0.2-0.2-0.4-0.4-0.6c-0.2-0.2-0.4-0.3-0.6-0.4c-0.2-0.1-0.4-0.1-0.7-0.1
				c-0.5,0-0.9,0.2-1.2,0.5c-0.4,0.4-0.6,0.9-0.6,1.4L57,7.1z"/>
			<path id="Path_70" class="st2" d="M66,12.5V7.1c0.1-0.5-0.1-1-0.3-1.4c-0.3-0.3-0.8-0.4-1.2-0.4c-1.2,0-1.8,0.7-1.8,2.1v5.1h-2.4
				V3.5h2.3v1.3c0.3-0.5,0.6-0.9,1.1-1.2c0.6-0.3,1.2-0.4,1.8-0.4c0.4,0,0.8,0.1,1.2,0.2c0.4,0.1,0.7,0.3,0.9,0.6
				C67.8,4.3,68,4.6,68.2,5c0.2,0.4,0.2,0.8,0.2,1.3v6.2L66,12.5z"/>
			<path id="Path_71" class="st2" d="M74.5,6.6h2.2v2.5c0,0.5-0.1,0.9-0.2,1.4c-0.1,0.4-0.4,0.8-0.7,1.1c-0.3,0.3-0.7,0.6-1.1,0.8
				c-0.5,0.2-1.1,0.3-1.6,0.3c-0.6,0-1.1-0.1-1.7-0.3c-0.4-0.2-0.8-0.4-1.1-0.8c-0.3-0.3-0.5-0.7-0.6-1.1c-0.1-0.4-0.2-0.9-0.2-1.4
				v-8h2.3v2.4h4.9v1.7h-4.9v3.7c0,0.5,0.1,0.9,0.3,1.3c0.2,0.3,0.6,0.5,1,0.5c0.4,0,0.8-0.1,1-0.5c0.2-0.4,0.4-0.8,0.3-1.3
				L74.5,6.6z"/>
			<path id="Path_72" class="st2" d="M83,6.2c0-0.4-0.2-0.7-0.5-0.9c-0.4-0.2-0.8-0.3-1.2-0.3c-0.4,0-0.7,0-1,0.2
				C80.1,5.3,80,5.6,80,5.8c0,0.3,0.1,0.5,0.4,0.6c0.3,0.2,0.7,0.3,1.1,0.4c0.5,0.1,1,0.3,1.5,0.4c0.4,0.1,0.8,0.2,1.2,0.4
				c0.4,0.2,0.8,0.4,1.1,0.8c0.3,0.4,0.4,0.9,0.4,1.4c0,0.8-0.3,1.7-1,2.2c-0.9,0.6-1.9,0.9-2.9,0.8c-1.1,0.1-2.2-0.2-3.2-0.9
				c-0.7-0.5-1.1-1.4-1.1-2.2h2.4c0,0.4,0.2,0.8,0.5,1c0.4,0.3,0.9,0.4,1.4,0.3c0.4,0,0.8-0.1,1.1-0.2c0.3-0.1,0.5-0.4,0.5-0.7
				c0-0.3-0.2-0.6-0.4-0.7c-0.3-0.1-0.7-0.3-1-0.3C81,8.8,80.4,8.6,80,8.5c-0.4-0.1-0.8-0.3-1.2-0.5c-0.4-0.2-0.7-0.5-0.9-0.9
				c-0.2-0.3-0.2-0.7-0.2-1.1c0-0.4,0.1-0.7,0.2-1.1C78,4.6,78.2,4.3,78.5,4c0.4-0.3,0.7-0.4,1.2-0.6c0.6-0.1,1.2-0.2,1.7-0.2
				c1-0.1,2,0.2,2.9,0.7c0.6,0.6,1,1.4,1,2.2L83,6.2z"/>
		</g>
	</g>
	<g id="Group_24" transform="translate(24.859)">
		<path id="Path_73" class="st1" d="M22.8,17.4c5.1-0.5,10-2.3,14.3-5.3c4.7-3.3,10.2-5.3,16-5.9c2.3-0.3,4.7-0.4,7-0.3
			C42.6-4.9,19.9-0.5,7.7,15.9C12.5,17.6,17.7,18.1,22.8,17.4z"/>
		<path id="Path_74" class="st3" d="M26.5,30.6c4.6,0.6,9.3,0,13.6-1.9c10-4,21.4-2.7,30.2,3.4c2.4,1.8,5.2,3.1,8.1,3.9
			c-0.8-9.3-4.9-18.1-11.5-24.7c-4.3-1.4-8.9-1.7-13.4-1c-5.1,0.5-10,2.3-14.3,5.3c-4.7,3.3-10.2,5.3-16,5.9
			c-1.8,0.2-3.7,0.4-5.5,0.4c-3.9,0-7.8-0.7-11.4-2c-0.3-0.1-0.7-0.2-1-0.3c-0.3,0.6-0.7,1.2-1,1.8c3.3,0.9,6.5,2.5,9.3,4.5
			C17.4,28.5,21.9,30.2,26.5,30.6z"/>
		<path id="Path_75" class="st1" d="M22.8,52.1c5.1-0.5,10-2.3,14.3-5.3c9.7-6.3,21.8-7.9,32.9-4.2c2.7,0.9,5.5,1.5,8.4,1.8
			c0.2-1.3,0.3-2.7,0.3-4c-3.8-0.9-7.3-2.5-10.5-4.8c-7.8-5.4-17.7-6.5-26.5-3c-10,4-21.4,2.7-30.2-3.4c-2.6-1.9-5.6-3.3-8.8-4.1
			C-0.3,32.8-0.8,41.1,1.2,49c2.2,0.4,4.3,0.9,6.4,1.6C12.5,52.4,17.7,52.9,22.8,52.1z"/>
		<path id="Path_76" class="st1" d="M40.7,66.8c-10,4-21.4,2.7-30.2-3.4c-1.3-0.9-2.6-1.7-4-2.4c12,18.1,36.4,23.1,54.5,11.1
			c1.6-1.1,3.1-2.2,4.5-3.5c-3.4-2.1-7.2-3.4-11.2-3.7C49.7,64.3,45,64.9,40.7,66.8z"/>
		<path id="Path_77" class="st1" d="M68.7,46.6c-9.9-3.3-20.7-1.9-29.4,3.8c-4.7,3.3-10.2,5.3-16,5.9c-1.8,0.2-3.7,0.4-5.5,0.4
			c-3.9,0-7.8-0.7-11.4-2c-1.2-0.4-2.4-0.8-3.7-1.1c0.2,0.6,0.5,1.2,0.8,1.8c3.4,0.9,6.5,2.5,9.4,4.5c7.8,5.4,17.7,6.5,26.5,3
			c4.9-2.1,10.3-2.8,15.5-2.1c4.9,0.4,9.6,2.1,13.7,4.9c4.4-4.8,7.4-10.7,9-17C74.5,48.3,71.5,47.6,68.7,46.6z"/>
	</g>
</g>
</svg>
