<svg xmlns="http://www.w3.org/2000/svg" width="417.499" height="90.957" viewBox="0 0 417.499 90.957">
  <g id="Group_4" data-name="Group 4" transform="translate(-153.496 -990.619)">
    <g id="Group_1" data-name="Group 1" transform="translate(243.897 1010.323)">
      <path id="Path_1" data-name="Path 1" d="M347.506,1055.746a26.076,26.076,0,0,1-2.432,7.157,19.451,19.451,0,0,1-4.2,5.488,18.2,18.2,0,0,1-5.871,3.544,20.851,20.851,0,0,1-7.365,1.25,23.064,23.064,0,0,1-8.441-1.529,18.087,18.087,0,0,1-6.774-4.586,21.85,21.85,0,0,1-4.481-7.538,30.482,30.482,0,0,1-1.633-10.456,34.571,34.571,0,0,1,1.494-10.526,22.377,22.377,0,0,1,4.272-7.92,18.567,18.567,0,0,1,6.774-4.968,22.17,22.17,0,0,1,8.928-1.737,22.581,22.581,0,0,1,7.817,1.286,18.623,18.623,0,0,1,6.045,3.543,17.124,17.124,0,0,1,4.029,5.315,19.107,19.107,0,0,1,1.841,6.531h-9.657a10.827,10.827,0,0,0-3.752-6.149,9.85,9.85,0,0,0-6.253-2.188q-6.044,0-8.893,4.342t-2.848,11.916q0,7.71,2.814,11.984a9.433,9.433,0,0,0,8.441,4.273,9.988,9.988,0,0,0,6.913-2.327,12.257,12.257,0,0,0,3.579-6.705Z" transform="translate(-306.305 -1023.925)" fill="#fff"/>
      <path id="Path_2" data-name="Path 2" d="M395.874,1081.172a19.713,19.713,0,0,1-7.434-1.321,15.236,15.236,0,0,1-8.963-9.379,21.681,21.681,0,0,1-1.181-7.3,21.369,21.369,0,0,1,1.216-7.365,15.853,15.853,0,0,1,3.509-5.7,15.679,15.679,0,0,1,5.524-3.648,19.7,19.7,0,0,1,7.33-1.285,19.235,19.235,0,0,1,7.226,1.285,15.261,15.261,0,0,1,8.928,9.276,21.607,21.607,0,0,1,1.216,7.434,21.3,21.3,0,0,1-1.216,7.4,16.177,16.177,0,0,1-3.474,5.663,15.289,15.289,0,0,1-5.489,3.647A19.3,19.3,0,0,1,395.874,1081.172Zm0-7.574q8.267,0,8.268-10.422,0-10.352-8.268-10.352t-8.268,10.352Q387.606,1073.6,395.874,1073.6Z" transform="translate(-335.706 -1032.607)" fill="#fff"/>
      <path id="Path_3" data-name="Path 3" d="M464.774,1080.268v-20.7q0-3.961-1.32-5.35t-4.516-1.389q-7.018,0-7.017,7.851v19.593h-9.033v-34.183H451.5v5a10.974,10.974,0,0,1,4.239-4.412,13.722,13.722,0,0,1,6.809-1.494,13.583,13.583,0,0,1,4.516.729,9.573,9.573,0,0,1,3.578,2.188,10.5,10.5,0,0,1,2.362,3.578,12.856,12.856,0,0,1,.868,4.9v23.692Z" transform="translate(-362.086 -1032.607)" fill="#fff"/>
      <path id="Path_4" data-name="Path 4" d="M521.345,1052h8.407v9.727a16.719,16.719,0,0,1-.8,5.177,12.124,12.124,0,0,1-2.5,4.377,11.922,11.922,0,0,1-4.308,3.022,15.8,15.8,0,0,1-6.218,1.112,16.464,16.464,0,0,1-6.392-1.112,12.067,12.067,0,0,1-4.342-2.988,11.343,11.343,0,0,1-2.467-4.377,17.949,17.949,0,0,1-.764-5.28v-30.571h8.893v9.241h18.9v6.392h-18.9v14.034a8.835,8.835,0,0,0,1.216,5.037,4.492,4.492,0,0,0,4,1.772,4.642,4.642,0,0,0,3.994-1.736,8.177,8.177,0,0,0,1.286-4.933Z" transform="translate(-386.212 -1026.85)" fill="#fff"/>
      <path id="Path_5" data-name="Path 5" d="M555.513,1033.975v-8.407h9.033v8.407Zm0,38.283v-34.183h9.033v34.183Z" transform="translate(-408.083 -1024.596)" fill="#fff"/>
      <path id="Path_6" data-name="Path 6" d="M599.594,1080.268v-20.7q0-3.961-1.32-5.35t-4.516-1.389q-7.018,0-7.017,7.851v19.593h-9.032v-34.183h8.615v5a10.974,10.974,0,0,1,4.238-4.412,13.722,13.722,0,0,1,6.809-1.494,13.583,13.583,0,0,1,4.516.729,9.569,9.569,0,0,1,3.578,2.188,10.5,10.5,0,0,1,2.362,3.578,12.856,12.856,0,0,1,.869,4.9v23.692Z" transform="translate(-417.147 -1032.607)" fill="#fff"/>
      <path id="Path_7" data-name="Path 7" d="M644.521,1065.539a9.754,9.754,0,0,0,2.258,6.184,6.875,6.875,0,0,0,5.385,2.293,7.55,7.55,0,0,0,3.925-1.008,4.558,4.558,0,0,0,2.189-2.813h9.31a14.993,14.993,0,0,1-5.559,8.129,15.746,15.746,0,0,1-9.449,2.849q-17.091,0-17.091-18.62a21.7,21.7,0,0,1,1.111-7.157,15.448,15.448,0,0,1,3.231-5.488,13.965,13.965,0,0,1,5.177-3.509,18.9,18.9,0,0,1,7.017-1.215q7.92,0,11.985,5.072t4.065,15.285Zm14.243-5.7a9.524,9.524,0,0,0-.66-3.3,6.9,6.9,0,0,0-1.564-2.362,6.225,6.225,0,0,0-2.223-1.39,7.522,7.522,0,0,0-2.57-.452,6.412,6.412,0,0,0-4.69,1.98,8.447,8.447,0,0,0-2.258,5.524Z" transform="translate(-440.745 -1032.607)" fill="#fff"/>
      <path id="Path_8" data-name="Path 8" d="M717.739,1080.268v-20.7q0-3.961-1.32-5.35t-4.516-1.389q-7.018,0-7.017,7.851v19.593h-9.032v-34.183h8.615v5a10.974,10.974,0,0,1,4.238-4.412,13.724,13.724,0,0,1,6.809-1.494,13.583,13.583,0,0,1,4.516.729,9.568,9.568,0,0,1,3.578,2.188,10.508,10.508,0,0,1,2.363,3.578,12.868,12.868,0,0,1,.868,4.9v23.692Z" transform="translate(-465.398 -1032.607)" fill="#fff"/>
      <path id="Path_9" data-name="Path 9" d="M774.31,1052h8.407v9.727a16.719,16.719,0,0,1-.8,5.177,12.139,12.139,0,0,1-2.5,4.377,11.921,11.921,0,0,1-4.308,3.022,15.8,15.8,0,0,1-6.218,1.112,16.462,16.462,0,0,1-6.392-1.112,12.066,12.066,0,0,1-4.342-2.988,11.344,11.344,0,0,1-2.467-4.377,17.931,17.931,0,0,1-.764-5.28v-30.571h8.893v9.241h18.9v6.392h-18.9v14.034a8.84,8.84,0,0,0,1.216,5.037,4.492,4.492,0,0,0,4,1.772,4.645,4.645,0,0,0,3.995-1.736,8.181,8.181,0,0,0,1.284-4.933Z" transform="translate(-489.524 -1026.85)" fill="#fff"/>
      <path id="Path_10" data-name="Path 10" d="M827.876,1056.437a4.826,4.826,0,0,0-1.807-3.509,8.214,8.214,0,0,0-4.585-1.007,9.489,9.489,0,0,0-3.96.66,2.256,2.256,0,0,0-1.39,2.189,2.537,2.537,0,0,0,1.39,2.327,18.633,18.633,0,0,0,4.169,1.563q2.917.833,5.558,1.493a42.2,42.2,0,0,1,4.655,1.425,9.745,9.745,0,0,1,4.169,3.023,8.452,8.452,0,0,1,1.459,5.246,10.018,10.018,0,0,1-3.786,8.337q-3.788,2.988-11.151,2.988-7.921,0-12.124-3.335a10.827,10.827,0,0,1-4.342-8.546h9.31a4.314,4.314,0,0,0,1.876,3.752,8.935,8.935,0,0,0,5.212,1.32,10.394,10.394,0,0,0,4.238-.8,2.79,2.79,0,0,0,1.806-2.744,2.637,2.637,0,0,0-1.633-2.571,21.461,21.461,0,0,0-3.856-1.32q-4.309-1.042-6.948-1.875a18.019,18.019,0,0,1-4.447-2.015,8.706,8.706,0,0,1-3.37-3.474,9.629,9.629,0,0,1-.938-4.238,10.571,10.571,0,0,1,.764-4.029,7.794,7.794,0,0,1,2.5-3.231,12.8,12.8,0,0,1,4.481-2.119,25.016,25.016,0,0,1,6.635-.764q7.434,0,10.943,2.848t3.856,8.407Z" transform="translate(-510.435 -1032.607)" fill="#fff"/>
    </g>
    <g id="Group_2" data-name="Group 2" transform="translate(153.496 990.619)">
      <path id="Path_11" data-name="Path 11" d="M181.25,1007.768a30.237,30.237,0,0,0,14.105-5.2,34.126,34.126,0,0,1,15.767-5.79,40.049,40.049,0,0,1,6.946-.335,38.838,38.838,0,0,0-51.662,9.889A30.128,30.128,0,0,0,181.25,1007.768Z" transform="translate(-158.769 -990.619)" fill="#fff"/>
      <path id="Path_12" data-name="Path 12" d="M182.71,1027.716a25.225,25.225,0,0,0,13.459-1.849,31.853,31.853,0,0,1,29.88,3.33,26.318,26.318,0,0,0,7.972,3.881,38.715,38.715,0,0,0-11.4-24.383,29.218,29.218,0,0,0-13.266-.953,30.223,30.223,0,0,0-14.105,5.2,34.129,34.129,0,0,1-15.767,5.79,42.664,42.664,0,0,1-5.436.371,34.433,34.433,0,0,1-11.281-2c-.341-.106-.681-.211-1.021-.315q-.5.853-.951,1.733a29.929,29.929,0,0,1,9.193,4.425A25.214,25.214,0,0,0,182.71,1027.716Z" transform="translate(-156.478 -997.475)" fill="#fff"/>
      <path id="Path_13" data-name="Path 13" d="M175.977,1059.278a30.233,30.233,0,0,0,14.105-5.2,37.742,37.742,0,0,1,32.485-4.167,32.775,32.775,0,0,0,8.283,1.75,39.163,39.163,0,0,0,.307-3.96,29.235,29.235,0,0,1-10.351-4.714,27.721,27.721,0,0,0-26.179-2.917,31.851,31.851,0,0,1-29.88-3.33,25.734,25.734,0,0,0-8.656-4.061,38.916,38.916,0,0,0-1.407,23.519,44.019,44.019,0,0,1,6.334,1.609A30.234,30.234,0,0,0,175.977,1059.278Z" transform="translate(-153.496 -1007.797)" fill="#fff"/>
      <path id="Path_14" data-name="Path 14" d="M198.218,1098.209a31.848,31.848,0,0,1-29.879-3.33,39.071,39.071,0,0,0-3.913-2.331,38.832,38.832,0,0,0,58.272,7.491,24.2,24.2,0,0,0-11.021-3.679A25.207,25.207,0,0,0,198.218,1098.209Z" transform="translate(-157.96 -1032.247)" fill="#fff"/>
      <path id="Path_15" data-name="Path 15" d="M223.16,1067.246a33.613,33.613,0,0,0-29.066,3.728,34.118,34.118,0,0,1-15.767,5.79,42.673,42.673,0,0,1-5.435.372,34.447,34.447,0,0,1-11.281-2c-1.2-.375-2.386-.741-3.652-1.047q.356.914.756,1.806a29.853,29.853,0,0,1,9.244,4.439,27.725,27.725,0,0,0,26.178,2.917,29.06,29.06,0,0,1,15.358-2.082,28.3,28.3,0,0,1,13.569,4.8,38.747,38.747,0,0,0,8.857-16.826A37.228,37.228,0,0,1,223.16,1067.246Z" transform="translate(-155.318 -1021.176)" fill="#fff"/>
    </g>
    <g id="Group_3" data-name="Group 3" transform="translate(438.408 1068.213)">
      <path id="Path_16" data-name="Path 16" d="M635.094,1122.326h4.221a7.53,7.53,0,0,1,2.379.4,6.559,6.559,0,0,1,2.156,1.194,6.059,6.059,0,0,1,1.554,1.994,6.812,6.812,0,0,1,0,5.558,6.1,6.1,0,0,1-1.554,1.985,6.575,6.575,0,0,1-2.156,1.194,7.524,7.524,0,0,1-2.379.4h-4.221Zm1.293,11.53H638.9a6.6,6.6,0,0,0,2.523-.44,5.217,5.217,0,0,0,1.778-1.167,4.649,4.649,0,0,0,1.051-1.652,5.531,5.531,0,0,0,0-3.826,4.658,4.658,0,0,0-1.051-1.652,5.219,5.219,0,0,0-1.778-1.167,6.6,6.6,0,0,0-2.523-.44h-2.514Z" transform="translate(-635.094 -1122.003)" fill="#fff"/>
      <path id="Path_17" data-name="Path 17" d="M660.4,1133.856h6.807v1.186h-8.1v-12.716h7.885v1.185H660.4v4.328h6.161v1.186H660.4Z" transform="translate(-644.901 -1122.003)" fill="#fff"/>
      <path id="Path_18" data-name="Path 18" d="M683.771,1124.2a2.791,2.791,0,0,0-2.461-1.239,3.674,3.674,0,0,0-.988.135,2.734,2.734,0,0,0-.871.413,2.058,2.058,0,0,0-.619.719,2.167,2.167,0,0,0-.234,1.032,1.79,1.79,0,0,0,.485,1.339,3.833,3.833,0,0,0,1.2.781,13.411,13.411,0,0,0,1.571.548,7.209,7.209,0,0,1,1.571.647,3.745,3.745,0,0,1,1.2,1.069,3.023,3.023,0,0,1,.485,1.814,3.262,3.262,0,0,1-.368,1.554,3.571,3.571,0,0,1-.97,1.158,4.539,4.539,0,0,1-1.346.718,4.664,4.664,0,0,1-1.5.252,5.675,5.675,0,0,1-2.218-.44,4.217,4.217,0,0,1-1.788-1.446l1.185-.844a3.071,3.071,0,0,0,1.146,1.122,3.42,3.42,0,0,0,1.736.423,3.2,3.2,0,0,0,.967-.153,2.766,2.766,0,0,0,.868-.449,2.486,2.486,0,0,0,.636-.728,1.929,1.929,0,0,0,.25-.987,2.027,2.027,0,0,0-.278-1.1,2.4,2.4,0,0,0-.737-.737,4.7,4.7,0,0,0-1.042-.494c-.389-.132-.79-.263-1.2-.4s-.815-.281-1.2-.449a4.133,4.133,0,0,1-1.042-.637,2.849,2.849,0,0,1-.736-.97,3.389,3.389,0,0,1-.279-1.464,3.46,3.46,0,0,1,.35-1.6,3.314,3.314,0,0,1,.933-1.131,3.97,3.97,0,0,1,1.32-.664,5.32,5.32,0,0,1,1.509-.216,5.4,5.4,0,0,1,1.958.341,4.227,4.227,0,0,1,1.634,1.2Z" transform="translate(-652.179 -1121.78)" fill="#fff"/>
      <path id="Path_19" data-name="Path 19" d="M695.012,1135.042H693.5l5.532-12.716h1.257l5.532,12.716h-1.508l-1.4-3.34h-6.5Zm1.887-4.526h5.513l-2.747-6.682Z" transform="translate(-658.948 -1122.003)" fill="#fff"/>
      <path id="Path_20" data-name="Path 20" d="M719.751,1135.042h-1.293v-12.716h3.915a4.986,4.986,0,0,1,3.062.844,2.988,2.988,0,0,1,1.123,2.55,3.177,3.177,0,0,1-.835,2.236,3.588,3.588,0,0,1-2.415,1.051l3.664,6.034H725.39l-3.484-5.909h-2.155Zm0-7.094h2.3a5.153,5.153,0,0,0,1.463-.179,2.718,2.718,0,0,0,.961-.475,1.73,1.73,0,0,0,.52-.7,2.308,2.308,0,0,0,.162-.87,2.268,2.268,0,0,0-.162-.853,1.8,1.8,0,0,0-.52-.709,2.538,2.538,0,0,0-.961-.476,5.422,5.422,0,0,0-1.463-.17h-2.3Z" transform="translate(-669.14 -1122.003)" fill="#fff"/>
      <path id="Path_21" data-name="Path 21" d="M738.968,1135.042h-1.294v-12.716h3.915a4.986,4.986,0,0,1,3.063.844,2.988,2.988,0,0,1,1.123,2.55,3.177,3.177,0,0,1-.835,2.236,3.589,3.589,0,0,1-2.415,1.051l3.664,6.034h-1.581l-3.485-5.909h-2.155Zm0-7.094h2.3a5.155,5.155,0,0,0,1.463-.179,2.717,2.717,0,0,0,.961-.475,1.734,1.734,0,0,0,.521-.7,2.306,2.306,0,0,0,.162-.87,2.265,2.265,0,0,0-.162-.853,1.808,1.808,0,0,0-.521-.709,2.537,2.537,0,0,0-.961-.476,5.424,5.424,0,0,0-1.463-.17h-2.3Z" transform="translate(-676.988 -1122.003)" fill="#fff"/>
      <path id="Path_22" data-name="Path 22" d="M768.689,1128.461a6.97,6.97,0,0,1-.5,2.677,6.313,6.313,0,0,1-3.493,3.5,7.134,7.134,0,0,1-5.262,0,6.31,6.31,0,0,1-3.493-3.5,7.367,7.367,0,0,1,0-5.352,6.306,6.306,0,0,1,3.493-3.5,7.136,7.136,0,0,1,5.262,0,6.308,6.308,0,0,1,3.493,3.5A6.971,6.971,0,0,1,768.689,1128.461Zm-1.4,0a6.137,6.137,0,0,0-.359-2.092,5.325,5.325,0,0,0-1.032-1.751,5,5,0,0,0-1.644-1.2,5.572,5.572,0,0,0-4.382,0,4.994,4.994,0,0,0-1.643,1.2,5.291,5.291,0,0,0-1.032,1.751,6.266,6.266,0,0,0,0,4.185,5.282,5.282,0,0,0,1.032,1.751,4.969,4.969,0,0,0,1.643,1.2,5.571,5.571,0,0,0,4.382,0,4.976,4.976,0,0,0,1.644-1.2,5.315,5.315,0,0,0,1.032-1.751A6.132,6.132,0,0,0,767.288,1128.461Z" transform="translate(-684.241 -1121.78)" fill="#fff"/>
      <path id="Path_23" data-name="Path 23" d="M784.718,1133.856h5.927v1.186h-7.22v-12.716h1.294Z" transform="translate(-695.673 -1122.003)" fill="#fff"/>
      <path id="Path_24" data-name="Path 24" d="M801.112,1133.856h5.927v1.186h-7.22v-12.716h1.293Z" transform="translate(-702.368 -1122.003)" fill="#fff"/>
      <path id="Path_25" data-name="Path 25" d="M828.01,1128.461a6.971,6.971,0,0,1-.5,2.677,6.308,6.308,0,0,1-3.493,3.5,7.135,7.135,0,0,1-5.263,0,6.31,6.31,0,0,1-3.493-3.5,7.365,7.365,0,0,1,0-5.352,6.306,6.306,0,0,1,3.493-3.5,7.137,7.137,0,0,1,5.263,0,6.3,6.3,0,0,1,3.493,3.5A6.971,6.971,0,0,1,828.01,1128.461Zm-1.4,0a6.139,6.139,0,0,0-.359-2.092,5.305,5.305,0,0,0-1.032-1.751,5.006,5.006,0,0,0-1.644-1.2,5.573,5.573,0,0,0-4.382,0,5,5,0,0,0-1.643,1.2,5.292,5.292,0,0,0-1.032,1.751,6.276,6.276,0,0,0,0,4.185,5.283,5.283,0,0,0,1.032,1.751,4.972,4.972,0,0,0,1.643,1.2,5.572,5.572,0,0,0,4.382,0,4.981,4.981,0,0,0,1.644-1.2,5.3,5.3,0,0,0,1.032-1.751A6.134,6.134,0,0,0,826.609,1128.461Z" transform="translate(-708.468 -1121.78)" fill="#fff"/>
      <path id="Path_26" data-name="Path 26" d="M848.193,1124.2a2.791,2.791,0,0,0-2.461-1.239,3.681,3.681,0,0,0-.988.135,2.734,2.734,0,0,0-.871.413,2.059,2.059,0,0,0-.619.719,2.167,2.167,0,0,0-.234,1.032,1.79,1.79,0,0,0,.485,1.339,3.833,3.833,0,0,0,1.2.781,13.389,13.389,0,0,0,1.571.548,7.21,7.21,0,0,1,1.571.647,3.745,3.745,0,0,1,1.2,1.069,3.028,3.028,0,0,1,.484,1.814,3.263,3.263,0,0,1-.368,1.554,3.575,3.575,0,0,1-.97,1.158,4.546,4.546,0,0,1-1.346.718,4.663,4.663,0,0,1-1.5.252,5.676,5.676,0,0,1-2.218-.44,4.219,4.219,0,0,1-1.788-1.446l1.186-.844a3.064,3.064,0,0,0,1.146,1.122,3.419,3.419,0,0,0,1.736.423,3.2,3.2,0,0,0,.967-.153,2.77,2.77,0,0,0,.868-.449,2.489,2.489,0,0,0,.636-.728,1.93,1.93,0,0,0,.25-.987,2.032,2.032,0,0,0-.278-1.1,2.408,2.408,0,0,0-.737-.737,4.693,4.693,0,0,0-1.042-.494c-.389-.132-.79-.263-1.2-.4s-.815-.281-1.2-.449a4.134,4.134,0,0,1-1.042-.637,2.841,2.841,0,0,1-.736-.97,3.381,3.381,0,0,1-.279-1.464,3.453,3.453,0,0,1,.35-1.6,3.314,3.314,0,0,1,.934-1.131,3.961,3.961,0,0,1,1.32-.664,5.319,5.319,0,0,1,1.509-.216,5.4,5.4,0,0,1,1.958.341,4.227,4.227,0,0,1,1.634,1.2Z" transform="translate(-719.329 -1121.78)" fill="#fff"/>
    </g>
  </g>
</svg>
