<svg xmlns="http://www.w3.org/2000/svg" width="131.275" height="131.321" viewBox="0 0 131.275 131.321">
  <g id="Group_116" data-name="Group 116" transform="translate(-153.496 -990.619)">
    <path id="Path_32" data-name="Path 32" d="M191.5,1019.606c12.249-1.572,17.88-5.077,23.843-8.788,6.337-3.944,12.89-8.022,26.652-9.787a67.675,67.675,0,0,1,11.742-.566,65.651,65.651,0,0,0-87.327,16.716C173.039,1019.243,179.366,1021.16,191.5,1019.606Z" fill="#dedede"/>
    <path id="Path_33" data-name="Path 33" d="M197.837,1041.737c11.02,1.227,16.717-.888,22.75-3.126,6.533-2.425,13.289-4.934,25.959-3.52s18.709,5.345,24.549,9.149c3.873,2.523,7.6,4.94,13.476,6.56a65.44,65.44,0,0,0-19.265-41.215c-5.769-1.7-11.922-2.959-22.424-1.612-12.249,1.571-17.881,5.077-23.843,8.788-6.337,3.944-12.89,8.022-26.652,9.787a72.057,72.057,0,0,1-9.188.628c-8.228,0-13.716-1.707-19.068-3.373-.577-.179-1.151-.357-1.726-.532q-.842,1.442-1.608,2.929c6.93,1.884,11.294,4.713,15.54,7.479C181.728,1037.191,186.82,1040.509,197.837,1041.737Z" fill="#dedede"/>
    <path id="Path_34" data-name="Path 34" d="M191.5,1077.64c12.249-1.571,17.88-5.076,23.843-8.787,6.337-3.945,12.89-8.023,26.652-9.788s21.132.527,28.258,2.744a55.4,55.4,0,0,0,14,2.957,66.182,66.182,0,0,0,.519-6.693c-8.094-1.858-12.865-4.951-17.5-7.969-5.392-3.512-10.484-6.829-21.5-8.057s-16.717.886-22.748,3.126c-6.534,2.424-13.291,4.933-25.961,3.52s-18.707-5.346-24.546-9.149c-4.121-2.685-8.078-5.253-14.632-6.864a65.781,65.781,0,0,0-2.379,39.756,74.383,74.383,0,0,1,10.706,2.719C172.915,1077.24,179.247,1079.21,191.5,1077.64Z" fill="#dedede"/>
    <path id="Path_35" data-name="Path 35" d="M221.546,1102.117c-6.532,2.426-13.281,4.932-25.96,3.52s-18.708-5.345-24.546-9.149a66.2,66.2,0,0,0-6.614-3.94,65.639,65.639,0,0,0,98.5,12.663c-4.51-2.783-9.563-5.209-18.63-6.219C233.275,1097.762,227.578,1099.878,221.546,1102.117Z" fill="#dedede"/>
    <path id="Path_36" data-name="Path 36" d="M268.171,1068.493c-6.706-2.086-13.045-4.056-25.289-2.485s-17.881,5.076-23.843,8.787c-6.337,3.945-12.89,8.023-26.652,9.788a72.232,72.232,0,0,1-9.187.628c-8.23,0-13.716-1.708-19.068-3.373-2.033-.633-4.034-1.253-6.174-1.769q.6,1.545,1.278,3.052c6.98,1.883,11.362,4.725,15.625,7.5,5.391,3.512,10.483,6.829,21.5,8.056s16.715-.886,22.748-3.125c6.535-2.425,13.293-4.931,25.961-3.52,11.513,1.283,17.548,4.648,22.936,8.106a65.5,65.5,0,0,0,14.971-28.442A62.934,62.934,0,0,1,268.171,1068.493Z" fill="#dedede"/>
  </g>
</svg>
