<svg id="Group_16" data-name="Group 16" xmlns="http://www.w3.org/2000/svg" width="156.493" height="57.915" viewBox="0 0 156.493 57.915">
  <path id="Path_37" data-name="Path 37" d="M114.5,346.577l-13.527-.814-5.1,6.11,11.029-.649,7.882,1.659Z" transform="translate(-88.573 -325.778)" fill="#003851"/>
  <g id="Group_11" data-name="Group 11" transform="translate(93.957 50.896)">
    <g id="Group_10" data-name="Group 10" transform="translate(0)">
      <g id="Group_9" data-name="Group 9">
        <g id="Group_8" data-name="Group 8">
          <path id="Path_38" data-name="Path 38" d="M334.056,430.724h.846V433.1h.021a1.2,1.2,0,0,1,.162-.173,1.3,1.3,0,0,1,.24-.166,1.466,1.466,0,0,1,.324-.127,1.64,1.64,0,0,1,.423-.049,1.589,1.589,0,0,1,.663.137,1.546,1.546,0,0,1,.518.377,1.736,1.736,0,0,1,.335.564,2,2,0,0,1,.12.7,2.105,2.105,0,0,1-.113.7,1.615,1.615,0,0,1-.331.564,1.567,1.567,0,0,1-.529.377,1.71,1.71,0,0,1-.7.137,1.6,1.6,0,0,1-.669-.141,1.087,1.087,0,0,1-.493-.451h-.014v.508h-.8Zm2.805,3.636a1.107,1.107,0,0,0-.067-.38.954.954,0,0,0-.2-.324,1,1,0,0,0-1.459,0,.95.95,0,0,0-.2.324,1.115,1.115,0,0,0,0,.761.951.951,0,0,0,.2.324,1,1,0,0,0,1.459,0,.955.955,0,0,0,.2-.324A1.106,1.106,0,0,0,336.861,434.36Z" transform="translate(-334.056 -430.724)" fill="#334751"/>
          <path id="Path_39" data-name="Path 39" d="M345,436.07h.93l.944,2.347h.014l.846-2.347h.881l-1.6,4.109a2.61,2.61,0,0,1-.2.419,1.2,1.2,0,0,1-.257.3.969.969,0,0,1-.349.183,1.7,1.7,0,0,1-.482.06,2.506,2.506,0,0,1-.648-.085l.105-.761a1.754,1.754,0,0,0,.208.06,1.11,1.11,0,0,0,.483,0,.469.469,0,0,0,.18-.088.479.479,0,0,0,.123-.155c.033-.063.068-.14.106-.229l.162-.4Z" transform="translate(-341.018 -434.125)" fill="#334751"/>
        </g>
      </g>
    </g>
  </g>
  <g id="Group_15" data-name="Group 15" transform="translate(0 0)">
    <g id="Group_14" data-name="Group 14">
      <g id="Group_13" data-name="Group 13">
        <g id="Group_12" data-name="Group 12" transform="translate(49.014 1.175)">
          <path id="Path_40" data-name="Path 40" d="M240.765,343.8V317.031L233.47,343.8h-8.118l-7.236-26.649V343.8h-7.589V304.736h12l7.059,28.649,7.059-28.649h11.766V343.8Z" transform="translate(-210.527 -300.853)" fill="#41a799"/>
          <path id="Path_41" data-name="Path 41" d="M340.17,360.153a11.688,11.688,0,0,1-.47-2.588,9.461,9.461,0,0,1-3.589,2.441,13.641,13.641,0,0,1-5.177.912q-5,0-7.324-2.206a7.549,7.549,0,0,1-2.324-5.736,10.493,10.493,0,0,1,1-4.971,7.456,7.456,0,0,1,2.765-2.912,13.331,13.331,0,0,1,4.207-1.559q2.44-.5,5.324-.912a10.25,10.25,0,0,0,3.883-1.089,2.689,2.689,0,0,0-.323-4.412,6.889,6.889,0,0,0-3.559-.794,5.141,5.141,0,0,0-3.794,1.177,5.51,5.51,0,0,0-1.441,3.118h-7.119a13.115,13.115,0,0,1,.735-4.118,7.894,7.894,0,0,1,2.177-3.236,10.192,10.192,0,0,1,3.912-2.088,20.4,20.4,0,0,1,5.883-.735,19.155,19.155,0,0,1,5.795.765,9.341,9.341,0,0,1,3.824,2.206A8.412,8.412,0,0,1,346.641,337a16.824,16.824,0,0,1,.647,4.853v18.3Zm-.529-14.178a4.14,4.14,0,0,1-1.706.941,31.135,31.135,0,0,1-3.236.765,10.966,10.966,0,0,0-4.53,1.647,3.5,3.5,0,0,0-1.236,2.883q0,3.236,3.706,3.236a7.374,7.374,0,0,0,2.736-.5,6.665,6.665,0,0,0,3.647-3.353,5.506,5.506,0,0,0,.559-2.441Z" transform="translate(-280.989 -317.209)" fill="#41a799"/>
          <path id="Path_42" data-name="Path 42" d="M401.97,342.975V303.442h7.648v39.533Z" transform="translate(-332.317 -300.03)" fill="#41a799"/>
          <path id="Path_43" data-name="Path 43" d="M437.753,324.538a8.259,8.259,0,0,0,1.912,5.236,5.821,5.821,0,0,0,4.559,1.941,6.4,6.4,0,0,0,3.324-.853,3.86,3.86,0,0,0,1.853-2.382h7.883a12.7,12.7,0,0,1-4.707,6.883,13.334,13.334,0,0,1-8,2.412q-14.472,0-14.472-15.766a18.362,18.362,0,0,1,.941-6.06,13.077,13.077,0,0,1,2.736-4.648,11.823,11.823,0,0,1,4.383-2.971,16,16,0,0,1,5.942-1.03q6.706,0,10.148,4.295t3.442,12.942Zm12.06-4.824a8.073,8.073,0,0,0-.559-2.794,5.858,5.858,0,0,0-1.324-2,5.273,5.273,0,0,0-1.882-1.176,6.373,6.373,0,0,0-2.177-.383,5.429,5.429,0,0,0-3.971,1.677,7.154,7.154,0,0,0-1.912,4.677Zm-9.648-15.3-1.824-3.236,12.178-7.118,2.765,4.824Z" transform="translate(-350.216 -294.064)" fill="#41a799"/>
        </g>
        <path id="Path_44" data-name="Path 44" d="M118.509,332.844l-1.17-8.467a.653.653,0,0,0-.6-.562l-13.713-.95a.018.018,0,0,1-.017-.019V321.3a.018.018,0,0,1,.019-.019l9.877.329a.355.355,0,0,0,.337-.5l-10.231-22.975v-.463a.019.019,0,0,1,.011-.017l5.284-2.293a.634.634,0,0,0,0-1.164l-5.284-2.293a.019.019,0,0,1-.011-.017v-.369a.669.669,0,0,0-.542-.677.635.635,0,0,0-.727.628V296.1a.018.018,0,0,1-.005.013L77.257,321.072a.018.018,0,0,1-.015.005l-.754-.052a.635.635,0,0,0-.59.955l6.644,11.281a.652.652,0,0,0,.562.321h34.779a.635.635,0,0,0,.592-.406A.655.655,0,0,0,118.509,332.844Zm-15.466-31.568,8.847,19.069a.018.018,0,0,1-.017.026l-8.847-.362a.018.018,0,0,1-.018-.018V301.284A.018.018,0,0,1,103.043,301.276Zm-1.335-3.328a.018.018,0,0,1,.031.013v13.2a.018.018,0,0,1-.022.018,31.063,31.063,0,0,0-12.2-.756.018.018,0,0,1-.016-.03Zm-13.9,14.18c5.478-1.662,12.134-.11,13.922.367a.017.017,0,0,1,.013.017v4.748a.018.018,0,0,1-.024.017A30.832,30.832,0,0,0,88.49,315.8a44.615,44.615,0,0,0-4.934.7.018.018,0,0,1-.015-.03l4.262-4.346ZM81.851,318.2c1.4-.371,11.733-2.917,19.876.448a.019.019,0,0,1,.012.017v4.091a.018.018,0,0,1-.02.019l-.677-.047-14.611-1.013-7.477-.518a.018.018,0,0,1-.013-.03l2.908-2.966Z" transform="translate(-75.81 -290.834)" fill="#003851"/>
      </g>
    </g>
  </g>
  <text id="Continents" transform="translate(103.493 54.752)" fill="#34464f" font-size="8" font-family="CoolveticaRg-Regular, Coolvetica"><tspan x="0" y="0">Continents</tspan></text>
</svg>
