<?xml version="1.0" encoding="utf-8"?>
<!-- Generator: Adobe Illustrator 24.2.3, SVG Export Plug-In . SVG Version: 6.00 Build 0)  -->
<svg version="1.1" id="Layer_1" xmlns="http://www.w3.org/2000/svg" xmlns:xlink="http://www.w3.org/1999/xlink" x="0px" y="0px"
	 viewBox="0 0 147 159.1" style="enable-background:new 0 0 147 159.1;" xml:space="preserve">
<style type="text/css">
	.st0{enable-background:new    ;}
	.st1{fill:#FFFFFF;}
	.st2{fill:#E1E1E1;}
	.st3{fill:none;stroke:#FFFFFF;stroke-miterlimit:10;}
</style>
<g id="Group_28" transform="translate(1 0.5)">
	<g class="st0">
		<path class="st1" d="M14.1,126.9c-4.4,0-7.8-1.3-10.2-3.9c-2.4-2.6-3.5-6.3-3.5-11.1c0-2.4,0.3-4.6,0.9-6.5s1.5-3.5,2.7-4.9
			c1.2-1.3,2.6-2.4,4.3-3.1c1.7-0.7,3.6-1.1,5.8-1.1c2.2,0,4.1,0.4,5.8,1.1c1.7,0.7,3.1,1.7,4.3,3.1c1.1,1.3,2,3,2.6,4.9
			c0.6,1.9,0.9,4.1,0.9,6.6c0,4.9-1.2,8.6-3.5,11.1S18.5,126.9,14.1,126.9z M14.1,121.8c1.1,0,2.1-0.2,3-0.6c0.9-0.4,1.8-1,2.5-1.8
			c0.7-0.8,1.3-1.8,1.7-3c0.4-1.2,0.6-2.7,0.6-4.4c0-3.4-0.7-5.9-2-7.7c-1.3-1.7-3.2-2.6-5.8-2.6c-2.5,0-4.5,0.9-5.8,2.6
			c-1.3,1.7-2,4.3-2,7.7s0.7,5.9,2,7.4C9.7,121,11.6,121.8,14.1,121.8z"/>
		<path class="st1" d="M48.7,118.3c-0.1,1.2-0.5,2.4-1.1,3.4c-0.6,1-1.3,1.9-2.1,2.6c-0.9,0.7-1.8,1.3-2.9,1.7
			c-1.1,0.4-2.3,0.6-3.6,0.6c-1.4,0-2.7-0.2-3.9-0.7c-1.2-0.5-2.2-1.2-3.1-2.2c-0.9-1-1.5-2.1-2-3.6s-0.7-3.1-0.7-5s0.2-3.5,0.7-4.9
			s1.1-2.5,2-3.4c0.9-0.9,1.9-1.5,3.1-2c1.2-0.4,2.6-0.6,4.1-0.6c1.4,0,2.6,0.2,3.8,0.6c1.1,0.4,2.1,0.9,3,1.6
			c0.8,0.7,1.5,1.6,2,2.6c0.5,1,0.8,2.1,0.9,3.4h-5.6c-0.1-1.1-0.6-1.9-1.3-2.6c-0.7-0.6-1.6-0.9-2.7-0.9c-0.6,0-1.2,0.1-1.7,0.3
			c-0.5,0.2-1,0.5-1.4,1c-0.4,0.5-0.7,1.1-0.9,1.9c-0.2,0.8-0.3,1.8-0.3,2.9c0,2.3,0.4,4,1.2,5.2c0.8,1.1,1.8,1.7,2.9,1.7
			s2-0.3,2.8-0.9c0.8-0.6,1.2-1.5,1.3-2.6H48.7z"/>
		<path class="st1" d="M55.5,116.8c0.1,1.6,0.6,2.9,1.4,3.8c0.8,0.9,2,1.4,3.3,1.4c0.9,0,1.7-0.2,2.4-0.6c0.7-0.4,1.2-1,1.4-1.7h5.8
			c-0.7,2.2-1.8,3.9-3.4,5c-1.6,1.2-3.6,1.8-5.8,1.8c-7.1,0-10.6-3.8-10.6-11.5c0-1.6,0.2-3.1,0.7-4.4c0.5-1.3,1.1-2.5,2-3.4
			c0.9-0.9,1.9-1.7,3.2-2.2c1.3-0.5,2.7-0.8,4.3-0.8c3.3,0,5.7,1,7.4,3.1c1.7,2.1,2.5,5.2,2.5,9.5H55.5z M64.3,113.3
			c0-0.8-0.2-1.5-0.4-2c-0.2-0.6-0.6-1.1-1-1.5s-0.9-0.7-1.4-0.9c-0.5-0.2-1-0.3-1.6-0.3c-1.1,0-2.1,0.4-2.9,1.2
			c-0.8,0.8-1.3,2-1.4,3.4H64.3z"/>
		<path class="st1" d="M85.2,125.9c-0.2-0.5-0.3-1.2-0.3-1.9c-0.7,0.7-1.5,1.3-2.6,1.8c-1.1,0.4-2.4,0.7-3.8,0.7
			c-2.4,0-4.2-0.5-5.4-1.6c-1.1-1.1-1.7-2.5-1.7-4.2c0-1.5,0.2-2.7,0.7-3.6c0.5-0.9,1.2-1.6,2-2.1c0.9-0.5,1.9-0.9,3.1-1.1
			c1.2-0.2,2.5-0.5,3.9-0.7c1.4-0.2,2.4-0.5,2.8-0.8c0.5-0.3,0.7-0.9,0.7-1.6c0-0.7-0.3-1.2-1-1.6c-0.6-0.4-1.5-0.6-2.6-0.6
			c-1.3,0-2.2,0.3-2.8,0.9c-0.6,0.6-0.9,1.3-1.1,2.3h-5.2c0-1.1,0.2-2.1,0.5-3c0.3-0.9,0.9-1.7,1.6-2.4c0.7-0.7,1.7-1.2,2.9-1.5
			c1.2-0.4,2.6-0.5,4.3-0.5c1.7,0,3.1,0.2,4.2,0.6c1.2,0.4,2.1,0.9,2.8,1.6c0.7,0.7,1.2,1.6,1.5,2.6c0.3,1,0.5,2.2,0.5,3.5v13.4
			H85.2z M84.9,115.6c-0.3,0.3-0.7,0.5-1.2,0.7c-0.5,0.2-1.3,0.4-2.4,0.6c-1.6,0.3-2.7,0.7-3.3,1.2c-0.6,0.5-0.9,1.2-0.9,2.1
			c0,1.6,0.9,2.4,2.7,2.4c0.7,0,1.4-0.1,2-0.4c0.6-0.2,1.1-0.6,1.6-1c0.4-0.4,0.8-0.9,1.1-1.5c0.3-0.6,0.4-1.2,0.4-1.8L84.9,115.6z"
			/>
		<path class="st1" d="M106.4,125.9v-12.8c0-1.6-0.3-2.7-0.8-3.3c-0.5-0.6-1.5-0.9-2.8-0.9c-2.9,0-4.3,1.6-4.3,4.9v12.1h-5.6v-21.2
			h5.3v3.1c0.7-1.2,1.5-2.1,2.6-2.7c1.1-0.6,2.5-0.9,4.2-0.9c1,0,1.9,0.2,2.8,0.5c0.9,0.3,1.6,0.8,2.2,1.4c0.6,0.6,1.1,1.3,1.5,2.2
			c0.4,0.9,0.5,1.9,0.5,3v14.7H106.4z"/>
		<path class="st1" d="M116.5,102.1l-1.3-2.4l8.9-5.2l2,3.5L116.5,102.1z M116.4,125.9v-21.2h5.6v21.2H116.4z"/>
		<path class="st1" d="M139.5,125.9c-0.2-0.5-0.3-1.2-0.3-1.9c-0.7,0.7-1.5,1.3-2.6,1.8c-1.1,0.4-2.4,0.7-3.8,0.7
			c-2.4,0-4.2-0.5-5.4-1.6c-1.1-1.1-1.7-2.5-1.7-4.2c0-1.5,0.2-2.7,0.7-3.6c0.5-0.9,1.2-1.6,2-2.1c0.9-0.5,1.9-0.9,3.1-1.1
			c1.2-0.2,2.5-0.5,3.9-0.7c1.4-0.2,2.4-0.5,2.8-0.8c0.5-0.3,0.7-0.9,0.7-1.6c0-0.7-0.3-1.2-1-1.6c-0.6-0.4-1.5-0.6-2.6-0.6
			c-1.3,0-2.2,0.3-2.8,0.9c-0.6,0.6-0.9,1.3-1.1,2.3h-5.2c0-1.1,0.2-2.1,0.5-3c0.3-0.9,0.9-1.7,1.6-2.4c0.7-0.7,1.7-1.2,2.9-1.5
			c1.2-0.4,2.6-0.5,4.3-0.5c1.7,0,3.1,0.2,4.2,0.6c1.2,0.4,2.1,0.9,2.8,1.6c0.7,0.7,1.2,1.6,1.5,2.6c0.3,1,0.5,2.2,0.5,3.5v13.4
			H139.5z M139.1,115.6c-0.3,0.3-0.7,0.5-1.2,0.7c-0.5,0.2-1.3,0.4-2.4,0.6c-1.6,0.3-2.7,0.7-3.3,1.2c-0.6,0.5-0.9,1.2-0.9,2.1
			c0,1.6,0.9,2.4,2.7,2.4c0.7,0,1.4-0.1,2-0.4c0.6-0.2,1.1-0.6,1.6-1c0.4-0.4,0.8-0.9,1.1-1.5c0.3-0.6,0.4-1.2,0.4-1.8L139.1,115.6z
			"/>
	</g>
	<g id="Group_26" transform="translate(23.656 138.628)">
		<g class="st0">
			<path class="st2" d="M0.9,5.2h0.8V10h0C1.8,9.8,2,9.7,2.1,9.5s0.4-0.3,0.6-0.4C2.9,9,3.2,9,3.4,8.9c0.2,0,0.5-0.1,0.7-0.1
				c0.5,0,0.9,0.1,1.3,0.2c0.4,0.2,0.7,0.4,1,0.7c0.3,0.3,0.5,0.6,0.7,1s0.2,0.8,0.2,1.3S7.2,12.9,7,13.3s-0.4,0.7-0.7,1
				c-0.3,0.3-0.6,0.5-1,0.7c-0.4,0.2-0.8,0.2-1.3,0.2c-0.2,0-0.5,0-0.7-0.1c-0.2,0-0.5-0.1-0.7-0.2c-0.2-0.1-0.4-0.2-0.6-0.4
				c-0.2-0.2-0.3-0.3-0.5-0.5h0V15H0.9V5.2z M1.6,12c0,0.3,0.1,0.7,0.2,1c0.1,0.3,0.3,0.6,0.5,0.8s0.5,0.4,0.8,0.5s0.6,0.2,1,0.2
				c0.4,0,0.7-0.1,1-0.2c0.3-0.1,0.5-0.3,0.8-0.5s0.4-0.5,0.5-0.8c0.1-0.3,0.2-0.6,0.2-1s-0.1-0.7-0.2-1c-0.1-0.3-0.3-0.6-0.5-0.8
				C5.6,10,5.4,9.9,5.1,9.7c-0.3-0.1-0.6-0.2-1-0.2c-0.4,0-0.7,0.1-1,0.2S2.5,10,2.3,10.3c-0.2,0.2-0.4,0.5-0.5,0.8
				C1.6,11.3,1.6,11.7,1.6,12z"/>
			<path class="st2" d="M10.7,16.9c-0.1,0.4-0.4,0.7-0.6,0.9c-0.3,0.2-0.6,0.3-1,0.3c-0.1,0-0.3,0-0.4,0c-0.1,0-0.3-0.1-0.4-0.1
				l0.1-0.7c0.1,0,0.2,0.1,0.3,0.1c0.1,0,0.2,0,0.4,0c0.1,0,0.3,0,0.4-0.1s0.2-0.1,0.3-0.2s0.1-0.2,0.2-0.3c0.1-0.1,0.1-0.2,0.1-0.4
				l0.5-1.4L8.1,9H9l2,5.1L12.9,9h0.8L10.7,16.9z"/>
		</g>
		<path id="Path_78" class="st2" d="M28.9,12c-0.1,0.7-0.3,1.3-0.6,1.9c-0.3,0.5-0.7,1-1.1,1.4c-0.4,0.4-1,0.7-1.5,0.9
			c-0.6,0.2-1.3,0.3-1.9,0.3c-0.8,0-1.5-0.1-2.2-0.4c-0.7-0.3-1.3-0.7-1.8-1.2c-0.5-0.6-0.9-1.2-1.2-2c-0.3-0.9-0.4-1.8-0.4-2.7
			c0-0.9,0.1-1.9,0.4-2.8c0.2-0.8,0.6-1.5,1.1-2.1c0.5-0.6,1.1-1,1.8-1.3c0.7-0.3,1.5-0.5,2.3-0.5c0.7,0,1.4,0.1,2,0.3
			c0.6,0.2,1.1,0.5,1.6,0.9c0.4,0.4,0.8,0.9,1.1,1.4c0.3,0.5,0.4,1.1,0.5,1.7h-2.5c-0.1-0.6-0.5-1.2-1-1.6c-1.2-0.9-3-0.7-3.9,0.5
			c0,0,0,0,0,0c-1,2-1,4.3,0,6.3c0.5,0.7,1.3,1.2,2.2,1.1c0.7,0,1.3-0.2,1.8-0.6c0.5-0.5,0.8-1.1,0.9-1.8L28.9,12z"/>
		<path id="Path_79" class="st2" d="M33.9,16.3c-0.7,0-1.3-0.1-1.9-0.3c-1.1-0.4-2-1.3-2.3-2.5c-0.2-0.6-0.3-1.3-0.3-1.9
			c0-0.7,0.1-1.3,0.3-1.9c0.4-1.1,1.3-2,2.4-2.4c0.6-0.2,1.3-0.3,1.9-0.3c0.6,0,1.3,0.1,1.9,0.3c1.1,0.4,2,1.3,2.3,2.4
			c0.2,0.6,0.3,1.3,0.3,1.9c0,0.7-0.1,1.3-0.3,1.9c-0.2,0.6-0.5,1.1-0.9,1.5c-0.4,0.4-0.9,0.7-1.4,1C35.2,16.2,34.6,16.4,33.9,16.3z
			 M33.9,14.4c1.4,0,2.2-0.9,2.2-2.7c0-1.8-0.7-2.7-2.2-2.7c-1.4,0-2.2,0.9-2.2,2.7C31.7,13.5,32.5,14.4,33.9,14.4L33.9,14.4z"/>
		<path id="Path_80" class="st2" d="M45,16.1v-5.4c0.1-0.5-0.1-1-0.3-1.4c-0.3-0.3-0.8-0.4-1.2-0.4c-1.2,0-1.8,0.7-1.8,2.1v5.1h-2.4
			V7.2h2.3v1.3c0.3-0.5,0.6-0.9,1.1-1.2c0.6-0.3,1.2-0.4,1.8-0.4c0.4,0,0.8,0.1,1.2,0.2c0.4,0.1,0.7,0.3,0.9,0.6
			C46.8,8,47,8.3,47.2,8.6c0.2,0.4,0.2,0.8,0.2,1.3v6.2L45,16.1z"/>
		<path id="Path_81" class="st2" d="M53.5,10.2h2.2v2.5c0,0.5-0.1,0.9-0.2,1.4c-0.1,0.4-0.4,0.8-0.7,1.1c-0.3,0.3-0.7,0.6-1.1,0.8
			c-0.5,0.2-1.1,0.3-1.6,0.3c-0.6,0-1.1-0.1-1.7-0.3c-0.4-0.2-0.8-0.4-1.1-0.8c-0.3-0.3-0.5-0.7-0.6-1.1c-0.1-0.4-0.2-0.9-0.2-1.4
			v-8h2.3v2.4h4.9v1.7h-4.9v3.7c0,0.5,0.1,0.9,0.3,1.3c0.2,0.3,0.6,0.5,1,0.5c0.4,0,0.8-0.1,1-0.5c0.2-0.4,0.4-0.8,0.3-1.3
			L53.5,10.2z"/>
		<path id="Path_82" class="st2" d="M56.7,6.1V3.9h2.4v2.2H56.7z M56.7,16.1V7.2h2.4v8.9H56.7z"/>
		<path id="Path_83" class="st2" d="M65.9,16.1v-5.4c0.1-0.5-0.1-1-0.3-1.4c-0.3-0.3-0.8-0.4-1.2-0.4c-1.2,0-1.8,0.7-1.8,2.1v5.1
			h-2.4V7.2h2.3v1.3c0.3-0.5,0.6-0.9,1.1-1.2c0.6-0.3,1.2-0.4,1.8-0.4c0.4,0,0.8,0.1,1.2,0.2c0.4,0.1,0.7,0.3,0.9,0.6
			c0.3,0.3,0.5,0.6,0.6,0.9c0.2,0.4,0.2,0.8,0.2,1.3v6.2L65.9,16.1z"/>
		<path id="Path_84" class="st2" d="M71.5,12.3c0,0.6,0.2,1.2,0.6,1.6c0.4,0.4,0.9,0.6,1.4,0.6c0.4,0,0.7-0.1,1-0.3
			c0.3-0.2,0.5-0.4,0.6-0.7h2.4c-0.2,0.9-0.7,1.6-1.5,2.1c-0.7,0.5-1.6,0.8-2.5,0.7c-3,0-4.5-1.6-4.5-4.9c0-0.6,0.1-1.3,0.3-1.9
			c0.2-0.5,0.5-1,0.8-1.4c0.4-0.4,0.8-0.7,1.4-0.9c0.6-0.2,1.2-0.3,1.8-0.3c1.2-0.1,2.4,0.4,3.1,1.3c0.8,1.2,1.2,2.6,1.1,4
			L71.5,12.3z M75.2,10.8c0-0.3-0.1-0.6-0.2-0.9c-0.1-0.2-0.2-0.4-0.4-0.6C74.5,9.1,74.3,9,74,8.9c-0.2-0.1-0.4-0.1-0.7-0.1
			c-0.5,0-0.9,0.2-1.2,0.5c-0.4,0.4-0.6,0.9-0.6,1.4L75.2,10.8z"/>
		<path id="Path_85" class="st2" d="M84.2,16.1v-5.4c0.1-0.5-0.1-1-0.3-1.4c-0.3-0.3-0.8-0.4-1.2-0.4c-1.2,0-1.8,0.7-1.8,2.1v5.1
			h-2.4V7.2h2.3v1.3C81,8,81.3,7.6,81.8,7.3C82.4,7,83,6.9,83.6,6.9c0.4,0,0.8,0.1,1.2,0.2c0.4,0.1,0.7,0.3,0.9,0.6
			C86,8,86.2,8.3,86.3,8.6c0.2,0.4,0.2,0.8,0.2,1.3v6.2L84.2,16.1z"/>
		<path id="Path_86" class="st2" d="M92.7,10.2h2.2v2.5c0,0.5-0.1,0.9-0.2,1.4c-0.1,0.4-0.4,0.8-0.7,1.1c-0.3,0.3-0.7,0.6-1.1,0.8
			c-0.5,0.2-1.1,0.3-1.6,0.3c-0.6,0-1.1-0.1-1.7-0.3c-0.4-0.2-0.8-0.4-1.1-0.8c-0.3-0.3-0.5-0.7-0.6-1.1c-0.1-0.4-0.2-0.9-0.2-1.4
			v-8h2.3v2.4h4.9v1.7h-4.9v3.7c0,0.5,0.1,0.9,0.3,1.3c0.2,0.3,0.6,0.5,1,0.5c0.4,0,0.8-0.1,1-0.5c0.2-0.4,0.4-0.8,0.3-1.3
			L92.7,10.2z"/>
		<path id="Path_87" class="st2" d="M101.2,9.9c0-0.4-0.2-0.7-0.5-0.9c-0.4-0.2-0.8-0.3-1.2-0.3c-0.4,0-0.7,0-1,0.2
			c-0.2,0.1-0.4,0.3-0.4,0.6c0,0.3,0.1,0.5,0.4,0.6c0.3,0.2,0.7,0.3,1.1,0.4c0.5,0.1,1,0.3,1.5,0.4c0.4,0.1,0.8,0.2,1.2,0.4
			c0.4,0.2,0.8,0.4,1.1,0.8c0.3,0.4,0.4,0.9,0.4,1.4c0,0.8-0.3,1.7-1,2.2c-0.9,0.6-1.9,0.9-2.9,0.8c-1.1,0.1-2.2-0.2-3.2-0.9
			c-0.7-0.5-1.1-1.4-1.1-2.2H98c0,0.4,0.2,0.8,0.5,1c0.4,0.3,0.9,0.4,1.4,0.3c0.4,0,0.8-0.1,1.1-0.2c0.3-0.1,0.5-0.4,0.5-0.7
			c0-0.3-0.2-0.6-0.4-0.7c-0.3-0.1-0.7-0.3-1-0.3c-0.8-0.2-1.4-0.3-1.8-0.5c-0.4-0.1-0.8-0.3-1.2-0.5c-0.4-0.2-0.7-0.5-0.9-0.9
			c-0.2-0.3-0.2-0.7-0.2-1.1c0-0.4,0.1-0.7,0.2-1.1c0.1-0.3,0.4-0.6,0.7-0.8c0.4-0.3,0.7-0.4,1.2-0.6C98.4,7,99,6.9,99.6,6.9
			c1-0.1,2,0.2,2.9,0.7c0.6,0.6,1,1.4,1,2.2L101.2,9.9z"/>
	</g>
	<g id="Group_27" transform="translate(36.87)">
		<path id="Path_88" class="st3" d="M22.8,17.4c5.1-0.5,10-2.3,14.3-5.3c4.7-3.3,10.2-5.3,16-5.9c2.3-0.3,4.7-0.4,7-0.3
			C42.6-4.9,19.9-0.5,7.7,15.9C12.5,17.6,17.7,18.1,22.8,17.4z"/>
		<path id="Path_89" class="st1" d="M26.5,30.6c4.6,0.6,9.3,0,13.6-1.9c10-4,21.4-2.7,30.2,3.4c2.4,1.8,5.2,3.1,8.1,3.9
			c-0.8-9.3-4.9-18.1-11.5-24.7c-4.3-1.4-8.9-1.7-13.4-1c-5.1,0.5-10,2.3-14.3,5.3c-4.7,3.3-10.2,5.3-16,5.9
			c-1.8,0.2-3.7,0.4-5.5,0.4c-3.9,0-7.8-0.7-11.4-2c-0.3-0.1-0.7-0.2-1-0.3c-0.3,0.6-0.7,1.2-1,1.8c3.3,0.9,6.5,2.5,9.3,4.5
			C17.4,28.5,21.9,30.2,26.5,30.6z"/>
		<path id="Path_90" class="st1" d="M22.8,52.1c5.1-0.5,10-2.3,14.3-5.3c9.7-6.3,21.8-7.9,32.9-4.2c2.7,0.9,5.5,1.5,8.4,1.8
			c0.2-1.3,0.3-2.7,0.3-4c-3.8-0.9-7.3-2.5-10.5-4.8c-7.8-5.4-17.7-6.5-26.5-3c-10,4-21.4,2.7-30.2-3.4c-2.6-1.9-5.6-3.3-8.8-4.1
			C-0.3,32.8-0.8,41.1,1.2,49c2.2,0.4,4.3,0.9,6.4,1.6C12.5,52.4,17.7,52.9,22.8,52.1z"/>
		<path id="Path_91" class="st1" d="M40.7,66.8c-10,4-21.4,2.7-30.2-3.4c-1.3-0.9-2.6-1.7-4-2.4c12,18.1,36.4,23.1,54.5,11.1
			c1.6-1.1,3.1-2.2,4.5-3.5c-3.4-2.1-7.2-3.4-11.2-3.7C49.7,64.3,45,64.9,40.7,66.8z"/>
		<path id="Path_92" class="st1" d="M68.7,46.6c-9.9-3.3-20.7-1.9-29.4,3.8c-4.7,3.3-10.2,5.3-16,5.9c-1.8,0.2-3.7,0.4-5.5,0.4
			c-3.9,0-7.8-0.7-11.4-2c-1.2-0.4-2.4-0.8-3.7-1.1c0.2,0.6,0.5,1.2,0.8,1.8c3.4,0.9,6.5,2.5,9.4,4.5c7.8,5.4,17.7,6.5,26.5,3
			c4.9-2.1,10.3-2.8,15.5-2.1c4.9,0.4,9.6,2.1,13.7,4.9c4.4-4.8,7.4-10.7,9-17C74.5,48.3,71.5,47.6,68.7,46.6z"/>
	</g>
</g>
</svg>
