<svg id="Group_108" data-name="Group 108" xmlns="http://www.w3.org/2000/svg" width="46.103" height="46.103" viewBox="0 0 46.103 46.103">
  <circle id="Ellipse_3" data-name="Ellipse 3" cx="23.052" cy="23.052" r="23.052" transform="translate(0 0)" fill="#f0f0f0"/>
  <path id="Path_232" data-name="Path 232" d="M517.677,1025.549a23.053,23.053,0,0,0-20.764,13.029h41.528A23.053,23.053,0,0,0,517.677,1025.549Z" transform="translate(-494.626 -1025.549)" fill="#d80027"/>
  <path id="Path_233" data-name="Path 233" d="M517.677,1405.882a23.053,23.053,0,0,0,20.764-13.029H496.913A23.053,23.053,0,0,0,517.677,1405.882Z" transform="translate(-494.626 -1359.779)" fill="#0052b4"/>
  <path id="Path_234" data-name="Path 234" d="M652.156,1207.456l-2.126,2.126a5.011,5.011,0,1,1-7.087,0l-2.126-2.126a8.018,8.018,0,1,0,11.339,0Z" transform="translate(-623.435 -1191.076)" fill="#6da544"/>
  <path id="Path_235" data-name="Path 235" d="M695.563,1237.027l.746,2.3h2.415l-1.954,1.419.746,2.3-1.954-1.42-1.954,1.42.746-2.3-1.954-1.419h2.415Z" transform="translate(-672.511 -1217.984)" fill="#ffda44"/>
</svg>
