<svg xmlns="http://www.w3.org/2000/svg" width="46.103" height="46.052" viewBox="0 0 46.103 46.052">
  <g id="Group_113" data-name="Group 113" transform="translate(0)">
    <circle id="Ellipse_5" data-name="Ellipse 5" cx="23" cy="23" r="23" transform="translate(0.071 0.052)" fill="#f0f0f0"/>
    <path id="SVGCleanerId_0" data-name="SVGCleanerId 0" d="M102.227,1154h22.257a22.921,22.921,0,0,0-2.589-6.013H102.227Z" transform="translate(-79.175 -1136.958)" fill="#338af3"/>
    <g id="Group_111" data-name="Group 111" transform="translate(3.383 0)">
      <path id="Path_239" data-name="Path 239" d="M-110.88,1421.128h28.7a23.17,23.17,0,0,0,5.319-6.014H-116.2A23.175,23.175,0,0,0-110.88,1421.128Z" transform="translate(116.199 -1380.036)" fill="#338af3"/>
      <path id="Path_240" data-name="Path 240" d="M102.227,1025.549v5.011h14.349A22.953,22.953,0,0,0,102.227,1025.549Z" transform="translate(-82.559 -1025.549)" fill="#338af3"/>
    </g>
    <g id="Group_112" data-name="Group 112" transform="translate(23.052 11.025)">
      <path id="SVGCleanerId_0-2" data-name="SVGCleanerId 0" d="M102.227,1154h22.257a22.921,22.921,0,0,0-2.589-6.013H102.227Z" transform="translate(-102.227 -1147.983)" fill="#338af3"/>
    </g>
    <path id="Path_241" data-name="Path 241" d="M-153.773,1281.549a23.076,23.076,0,0,0,.794,6.013h44.515a23.08,23.08,0,0,0,.794-6.013Z" transform="translate(153.773 -1258.497)" fill="#338af3"/>
    <path id="Path_242" data-name="Path 242" d="M-70.415,1109.138l-2.815,1.324,1.5,2.727-3.057-.585-.387,3.088-2.129-2.271-2.129,2.271-.387-3.088-3.057.585,1.5-2.727-2.815-1.324,2.815-1.324-1.5-2.727,3.057.585.387-3.088,2.129,2.271,2.129-2.271.387,3.088,3.057-.585-1.5,2.727Z" transform="translate(90.46 -1095.647)" fill="#ffda44"/>
  </g>
</svg>
